<svg width="24" height="24" viewBox="0 0 24 24" fill="none" xmlns="http://www.w3.org/2000/svg">
<path d="M9.91171 6.71627C12.5835 4.96736 16.2194 4.24887 20.7965 6.03795C21.8026 6.43135 22.3061 7.6735 21.8022 8.73651C19.4345 13.729 16.2195 15.8474 13.0608 16.3053C10.3284 16.7015 7.76699 15.8362 6.00678 14.7815C5.84398 14.9434 5.65206 15.1448 5.45215 15.3851C4.86907 16.0859 4.24862 17.0529 3.96693 18.1983C3.82557 18.7732 3.27816 19.1161 2.74438 18.9639C2.21061 18.8117 1.89224 18.2221 2.03351 17.6472C2.42489 16.0556 3.25901 14.7925 3.96205 13.9475C4.31736 13.5205 4.65026 13.1875 4.89653 12.9589C4.9641 12.8962 5.02626 12.8421 5.08011 12.7949C5.82997 10.843 7.4102 8.35388 9.91171 6.71627ZM19.9089 7.98562C15.9769 6.51006 13.0428 7.18643 10.9497 8.55667C9.57594 9.45601 8.52933 10.6785 7.79959 11.8673C7.92643 11.8444 8.05716 11.8235 8.19116 11.7968C9.33571 11.5695 10.7486 11.1804 12.2855 10.2383C12.7653 9.94428 13.3754 10.1246 13.6487 10.6411C13.9218 11.1579 13.7546 11.816 13.2747 12.1102C11.6853 13.0845 10.2131 13.5471 9.01628 13.816C10.1611 14.1812 11.4627 14.3635 12.7943 14.1704C15.1779 13.8248 17.8164 12.2597 19.9089 7.98562Z" fill="#AEEB67"/>
</svg>
