<svg width="196" height="56" viewBox="0 0 196 56" fill="none" xmlns="http://www.w3.org/2000/svg">
<g clip-path="url(#clip0_454_6360)">
<path d="M0.0857022 38.2421C0.138799 38.314 0.212737 38.3682 0.297691 38.3973L0.57419 38.2877L1.49588 38.7991L1.73553 38.9178H1.8277C1.89747 38.9334 1.9699 38.9334 2.03969 38.9178C2.10747 38.868 2.16138 38.8021 2.19637 38.726C2.23403 38.6673 2.26789 38.6064 2.29776 38.5434C2.33525 38.4513 2.36606 38.3567 2.38992 38.2603C2.39272 38.2208 2.39272 38.1811 2.38992 38.1416C2.38626 38.1114 2.38626 38.0807 2.38992 38.0503C2.4034 37.9769 2.42828 37.9061 2.46367 37.8405C2.50218 37.7455 2.54843 37.6539 2.60191 37.5665C2.61092 37.5336 2.61092 37.499 2.60191 37.4661C2.5983 37.4448 2.5983 37.4233 2.60191 37.4022C2.61712 37.3552 2.63559 37.3094 2.65721 37.2652C2.67556 37.2107 2.70031 37.1586 2.73094 37.11C2.80469 36.9365 2.92451 36.6899 3.08119 36.3705C3.26369 36.0191 3.47975 35.6858 3.72638 35.3752C3.78323 35.2985 3.8448 35.2253 3.91072 35.1562C3.96312 35.0989 4.00661 35.0343 4.03976 34.9644C4.03596 34.9434 4.03596 34.9216 4.03976 34.9005C4.04375 34.8824 4.04375 34.8637 4.03976 34.8457C4.04663 34.7881 4.04663 34.7299 4.03976 34.6723C4.00992 34.6046 3.97283 34.5403 3.92915 34.4805C3.88163 34.3862 3.81941 34.2999 3.74482 34.2248L3.51439 34.0241C3.45417 33.978 3.38929 33.9381 3.32084 33.9054C3.26786 33.8744 3.20722 33.8585 3.14572 33.8597C3.048 33.8629 2.95193 33.8856 2.86326 33.9263C2.77458 33.9671 2.6951 34.0252 2.62957 34.097C2.45206 34.2625 2.28579 34.4394 2.13186 34.6266L2.02125 34.8001L1.8369 34.9371C1.20172 35.6192 0.645267 36.3695 0.177858 37.1739C0.0955109 37.3985 0.0368342 37.6311 0.00275064 37.8677C-0.00952198 37.998 0.0194746 38.1289 0.0857022 38.2421Z" fill="#20330A"/>
<path d="M9.79103 49.0613L10.5192 49.335L11.2289 49.5907C11.8315 49.7688 12.4482 49.8971 13.0723 49.9742C13.7047 50.0564 14.3422 50.0961 14.9801 50.0929C16.2705 50.1491 17.5583 49.9344 18.7591 49.4629C19.5271 49.1456 20.2137 48.662 20.7683 48.0477C20.9767 47.7963 21.1417 47.5124 21.2568 47.2078C21.342 46.9823 21.3918 46.7452 21.4044 46.5048C21.4125 46.3863 21.4125 46.2673 21.4044 46.1487C21.3722 46.0075 21.326 45.8699 21.266 45.7378C21.0188 45.2417 20.6395 44.8219 20.1693 44.5235C19.4975 44.1096 18.709 43.9207 17.9203 43.985C17.4867 43.9785 17.053 43.9938 16.6207 44.0306L15.6346 44.1219C15.6167 44.1281 15.5971 44.1281 15.5793 44.1219H15.5332L14.6115 44.2222C14.2889 44.2222 13.9111 44.2679 13.4502 44.2679C13.2588 44.2674 13.0677 44.2521 12.8787 44.2222C12.7987 44.2073 12.7253 44.1687 12.6677 44.1117C12.6102 44.0547 12.5712 43.982 12.5561 43.9028C12.5614 43.8787 12.5614 43.8538 12.5561 43.8297C12.5542 43.8053 12.5542 43.7809 12.5561 43.7567C12.5561 43.7567 12.5561 43.7567 12.5561 43.7019C12.5592 43.6806 12.5592 43.6592 12.5561 43.638C12.6051 43.365 12.676 43.0964 12.7681 42.8346C12.8337 42.6679 12.9172 42.5087 13.017 42.3598C13.0909 42.2417 13.2055 42.1541 13.3396 42.1132C13.4192 42.1038 13.4996 42.1038 13.5791 42.1132C15.2844 42.1242 16.9813 41.878 18.6117 41.3829C19.5361 41.113 20.3954 40.6595 21.1371 40.0499C21.4551 39.8081 21.7108 39.4952 21.8836 39.1368C21.9892 38.9 22.0517 38.6465 22.0679 38.3882C22.0679 37.8951 21.6716 37.4752 20.8882 37.0552C19.8574 36.6131 18.7382 36.4102 17.6162 36.4618C16.8646 36.4531 16.1142 36.5204 15.3765 36.6625C14.8224 36.7839 14.2773 36.9426 13.7451 37.1374L12.6668 37.53C12.3703 37.6495 12.0609 37.7351 11.745 37.7857H11.4224C11.2934 37.7857 11.2104 37.7309 11.1828 37.667C11.1476 37.6089 11.1285 37.5427 11.1275 37.4752C11.1231 37.4418 11.1231 37.4081 11.1275 37.3748C11.132 37.3445 11.132 37.3137 11.1275 37.2835C11.1275 37.2835 11.1275 37.2835 11.1275 37.2287L11.2934 36.5804C11.404 36.1513 11.874 35.7861 12.7035 35.4939C13.5847 35.1949 14.4875 34.963 15.4041 34.8001C16.2336 34.654 17.017 34.5444 17.7545 34.4714C18.4918 34.3983 19.008 34.3618 19.2937 34.3618C20.6961 34.319 22.0765 34.7152 23.2386 35.4939C23.7257 35.7973 24.1279 36.2173 24.4081 36.7151C24.6884 37.2129 24.8377 37.7726 24.8423 38.3425C24.8423 38.4338 24.8146 38.6986 24.7593 39.1368C24.6711 39.6453 24.459 40.1247 24.1418 40.5337C23.7018 41.1004 23.1418 41.5649 22.5011 41.8941C21.5015 42.3853 20.4086 42.6622 19.2937 42.7067V42.9168H19.6347C20.8394 42.8373 22.0364 43.1586 23.0357 43.8297C23.4001 44.0997 23.6945 44.4516 23.8946 44.8563C24.0949 45.2611 24.1954 45.7071 24.1878 46.1579C24.1872 46.4217 24.1593 46.6848 24.105 46.943C24.0441 47.215 23.9671 47.4833 23.8745 47.7465C23.277 49.028 22.2955 50.0961 21.0634 50.805C19.2323 51.8272 17.143 52.3058 15.0447 52.1836C14.5296 52.1762 14.0155 52.1367 13.5055 52.0649C12.9254 51.9815 12.3503 51.8688 11.7819 51.7272C11.2125 51.5991 10.6522 51.4344 10.1044 51.2342C9.59332 51.0498 9.0972 50.827 8.62048 50.5676L9.79103 49.0613Z" fill="#20330A"/>
<path d="M39.0365 45.7378C38.8246 45.9113 38.6494 46.0574 38.5204 46.1852L38.1609 46.5048L37.9121 46.7147L37.6449 46.9612C36.2162 48.2668 34.8797 49.4537 33.5064 50.5311C32.6174 51.4065 31.4663 51.9735 30.2252 52.1471C29.9906 52.1457 29.7574 52.1087 29.534 52.0375C29.2777 51.956 29.0282 51.8554 28.7873 51.7362C28.5477 51.629 28.3166 51.5038 28.0961 51.362L27.4049 50.8963L26.9072 50.5219C26.7504 50.3942 26.6123 50.2847 26.4832 50.166C26.4434 50.1312 26.4002 50.1006 26.3541 50.0746L26.2158 49.9559C26.1347 49.8908 26.0578 49.8206 25.9854 49.7459C25.9163 49.6808 25.86 49.6033 25.8195 49.5176C25.8231 49.4934 25.8231 49.4688 25.8195 49.4446C25.8155 49.4205 25.8155 49.3958 25.8195 49.3715C25.8155 49.3199 25.8155 49.2681 25.8195 49.2163L25.8748 49.0612C25.9597 48.9158 26.0617 48.7809 26.1791 48.6595C26.2295 48.6052 26.2908 48.5617 26.359 48.532C26.4271 48.502 26.5008 48.4865 26.5754 48.486C26.6897 48.4773 26.8043 48.4994 26.9072 48.5499C26.9941 48.6045 27.0718 48.6722 27.1375 48.7508L27.2205 48.8421L27.3035 48.9243C27.4896 49.1004 27.6866 49.2651 27.8933 49.4172C28.0818 49.5561 28.2859 49.6726 28.5016 49.7642C28.5911 49.7999 28.6837 49.8275 28.7781 49.8464C28.8698 49.8601 28.963 49.8601 29.0547 49.8464C29.3453 49.8473 29.6343 49.8042 29.9119 49.7185C30.2034 49.6258 30.487 49.5098 30.7598 49.3715C31.201 49.1485 31.6205 48.8855 32.0133 48.5864C32.4281 48.276 32.8336 47.9564 33.2392 47.6735L33.359 47.6369L33.6078 47.4452C33.6828 47.3828 33.7536 47.3158 33.8199 47.2443H33.9211L34.8429 46.514L36.1056 45.5278H35.3867C33.9076 45.5404 32.4648 45.0756 31.276 44.2039C30.6904 43.8041 30.215 43.2655 29.8931 42.6373C29.5712 42.009 29.4129 41.3111 29.4326 40.6067C29.4326 39.1276 30.2375 37.8038 31.8474 36.6351C33.4573 35.4665 36.1118 34.8731 39.8107 34.8549C40.3454 34.8549 40.8708 34.8549 41.4054 34.8549L42.9906 34.9644C43.737 35.0299 44.4788 35.1397 45.212 35.293C45.9747 35.4471 46.7285 35.6422 47.47 35.8774L46.788 37.256C45.5235 36.8769 44.2233 36.6262 42.9077 36.5075C41.8017 36.4253 40.9353 36.3887 40.3177 36.3887C38.4681 36.2881 36.6192 36.6002 34.9074 37.3017C33.9089 37.7277 33.0594 38.436 32.465 39.3376C32.3526 39.5521 32.2659 39.7789 32.2068 40.0134C32.1532 40.2284 32.1252 40.4491 32.124 40.6706C32.124 40.7985 32.124 40.9263 32.124 41.0633C32.124 41.2002 32.124 41.3372 32.1976 41.4651C32.4295 42.1474 32.9091 42.7201 33.5433 43.0718C34.7551 43.6617 36.1059 43.9143 37.4513 43.8023H38.1333L38.6402 43.7475H39.6449L41.3962 37.6304H44.1611L41.6542 46.3861C41.3501 47.4634 41.138 48.212 41.0091 48.6138C40.9035 48.9451 40.8445 49.2892 40.8339 49.6364C40.8296 49.7881 40.8712 49.9375 40.9537 50.0655C41.0014 50.1279 41.0649 50.1767 41.1377 50.2071C41.2105 50.2374 41.2901 50.2485 41.3685 50.239C41.4777 50.2398 41.5864 50.2245 41.6911 50.1934C41.8222 50.1592 41.9491 50.1101 42.0689 50.0473L42.4007 49.892L42.705 49.7094L42.9169 49.545C42.9808 49.5033 43.0396 49.4544 43.0921 49.3989C43.1836 49.2724 43.3122 49.1766 43.4607 49.1252C43.5402 49.1138 43.6208 49.1138 43.7003 49.1252C43.7003 49.1252 43.7741 49.1252 43.7925 49.2072C43.7977 49.268 43.7977 49.329 43.7925 49.3898V50.0838C43.7877 50.2311 43.7397 50.3739 43.6542 50.4945C43.4421 50.8102 43.1619 51.0751 42.8339 51.2707C42.4573 51.5059 42.0554 51.6987 41.6357 51.8458C41.3593 51.9371 41.0919 52.0193 40.8246 52.0832C40.5962 52.1448 40.3609 52.1784 40.1242 52.1836C39.5667 52.215 39.0186 52.0317 38.5941 51.6725C38.245 51.396 38.0093 51.0034 37.9306 50.5676C37.9261 50.5221 37.9261 50.4763 37.9306 50.4308V50.3303C37.9303 50.1315 37.9457 49.9331 37.9767 49.7368C37.9767 49.4994 38.0504 49.262 38.0964 48.9973C38.0964 48.906 38.0964 48.8056 38.1425 48.7143C38.1886 48.6229 38.1425 48.5225 38.2162 48.4221C38.2716 48.1481 38.3177 47.9017 38.3822 47.6917C38.4468 47.4817 38.4744 47.3356 38.4836 47.29L39.0365 45.7378Z" fill="#20330A"/>
<path d="M62.9726 50.6315C62.902 50.839 62.7782 51.0246 62.6132 51.1702C62.4472 51.3034 62.2682 51.4198 62.0785 51.5172L61.8851 51.5903L61.6638 51.6907L61.4703 51.7455L61.249 51.8367C60.9834 51.9308 60.7127 52.0102 60.438 52.0741C60.1351 52.1397 59.8262 52.1734 59.5162 52.1745C59.1763 52.1983 58.8368 52.1249 58.5378 51.9631C58.2387 51.8012 57.993 51.5577 57.8295 51.2616C57.4776 50.6136 57.2584 49.9029 57.1844 49.1708C57.1844 49.0339 57.1844 48.8878 57.1844 48.7417C57.1844 48.5956 57.1844 48.4495 57.1844 48.3034C57.1685 47.4704 57.2146 46.6372 57.3226 45.8109C57.4609 44.8249 57.6453 43.8023 57.8572 42.7433C57.9494 42.305 58.0416 41.8758 58.1338 41.4559C58.2259 41.0268 58.3181 40.6159 58.4103 40.2051C58.5025 39.7942 58.6037 39.3924 58.7052 39C58.8066 38.6073 58.8988 38.2603 59.0002 37.9407H58.825L58.1798 39.1459C58.0324 39.4381 57.8849 39.7029 57.7558 39.9403C57.6938 40.0305 57.6383 40.1251 57.59 40.2234L57.4148 40.5428C57.3043 40.756 57.2029 40.9384 57.1107 41.0907L56.8527 41.5564V41.602L56.4931 42.2867C56.3641 42.5424 56.189 42.862 55.977 43.2636C55.1844 44.7975 54.4377 46.1579 53.7465 47.363C53.1216 48.4457 52.429 49.4885 51.6727 50.4854C50.8679 51.5805 49.8833 52.5341 48.7602 53.3066C47.7418 53.9995 46.5678 54.4353 45.3407 54.5757L44.7784 52.7498C46.8378 51.9532 48.6295 50.5991 49.9492 48.8421C51.587 46.8452 53.04 44.7063 54.2904 42.4511C55.0522 41.0389 55.7558 39.6694 56.401 38.3425C57.0277 37.0095 57.5439 35.8318 57.9678 34.8183H62.0324C61.9035 35.3295 61.756 35.9687 61.5808 36.7264C61.4058 37.4843 61.2398 38.2877 61.0556 39.155L60.8619 40.1321L60.6685 41.1363C60.4103 42.4967 60.1799 43.8115 59.9863 45.0623C59.824 46.0009 59.7286 46.9497 59.7006 47.9017V48.1481C59.7075 48.6105 59.7851 49.0693 59.931 49.5085C60.0009 49.7198 60.1464 49.8983 60.3397 50.0111C60.5332 50.1236 60.7615 50.1625 60.9818 50.1203C61.1136 50.1321 61.2463 50.1321 61.3781 50.1203C61.5298 50.0824 61.6755 50.024 61.8113 49.9468C62.3373 49.7217 62.7607 49.312 63.0003 48.7964L62.9726 50.6315Z" fill="#20330A"/>
<path d="M69.194 43.6014C69.0378 43.5478 68.8867 43.4805 68.7423 43.4006C68.1858 43.1383 67.685 42.7725 67.2677 42.3232C67.0412 42.0772 66.866 41.7891 66.752 41.4758C66.6382 41.1625 66.5879 40.8298 66.604 40.4972V40.4241C66.604 38.9815 67.5257 37.6851 69.3691 36.4343C71.2126 35.1834 74.1067 34.517 78.162 34.3253H79.904C80.0514 34.3163 80.1991 34.3163 80.3465 34.3253C80.6614 34.3388 80.9723 34.4004 81.2682 34.5079C81.3257 34.5296 81.376 34.5666 81.4133 34.6151C81.4508 34.6634 81.4739 34.7212 81.4803 34.7818C81.4839 34.8091 81.4839 34.8368 81.4803 34.864C81.4868 34.9002 81.4868 34.9374 81.4803 34.9736C81.4845 34.9915 81.4845 35.0103 81.4803 35.0284C81.4753 35.0432 81.4753 35.0591 81.4803 35.074L81.2866 35.6765C81.2036 35.9505 81.1022 36.1057 80.9733 36.1513C80.7736 36.195 80.5692 36.2134 80.3649 36.2061H79.9502C77.3146 36.1241 74.6914 36.5972 72.254 37.5939C70.4475 38.44 69.4951 39.3712 69.3968 40.3876V40.5337C69.3752 40.8463 69.4594 41.1571 69.6365 41.4169C69.8135 41.6765 70.0729 41.8701 70.3739 41.9671C71.0601 42.2206 71.7809 42.3714 72.5122 42.4145H73.9223C74.4639 42.4221 75.0053 42.4008 75.5444 42.3506C75.8825 42.3215 76.2181 42.2695 76.5491 42.1954C76.6803 42.1833 76.8098 42.1589 76.9362 42.1223L77.2772 42.0493H77.8395C77.9997 42.038 78.1598 42.0728 78.3003 42.1497C78.3507 42.1837 78.391 42.2305 78.4169 42.285C78.4428 42.3396 78.4534 42.4001 78.4479 42.4602C78.4517 42.4966 78.4517 42.5333 78.4479 42.5698C78.4479 42.5698 78.4479 42.652 78.4479 42.6976L78.1528 43.6836C78.1318 43.8053 78.0765 43.9187 77.9934 44.0108C77.9102 44.1027 77.8026 44.1698 77.6827 44.2039C77.2104 44.2794 76.7326 44.3159 76.2542 44.3135H75.6458C75.4002 44.3011 75.1541 44.3011 74.9085 44.3135L73.7288 44.4505C72.1961 44.5608 70.6969 44.9477 69.3046 45.5917C68.4492 45.9311 67.7391 46.5538 67.2954 47.3539C67.2482 47.4389 67.217 47.5316 67.2032 47.6278C67.1447 47.8492 67.1447 48.0819 67.2032 48.3034C67.2454 48.4731 67.3241 48.6319 67.4337 48.7691C67.7165 49.1153 68.0804 49.3879 68.4935 49.5633C69.1725 49.8437 69.9066 49.9685 70.6411 49.9286C71.2142 49.9245 71.7866 49.8878 72.3554 49.819C73.0005 49.7459 73.6458 49.6455 74.3186 49.5177C75.1473 49.3653 75.9658 49.1641 76.7704 48.9152C77.4552 48.7229 78.1167 48.4566 78.7428 48.1207C78.9116 48.0162 79.0947 47.9362 79.2866 47.8833C79.3855 47.8536 79.4875 47.8352 79.5907 47.8285C79.6258 47.8317 79.6591 47.8457 79.6855 47.8687C79.712 47.8917 79.7305 47.9224 79.7382 47.9564C79.7583 48.0436 79.7583 48.1341 79.7382 48.2212V48.3582C79.7303 48.4717 79.7021 48.583 79.6553 48.6869C79.6184 48.7964 79.5815 48.8969 79.5446 48.9882L79.4708 49.0976C79.4745 49.1341 79.4745 49.1708 79.4708 49.2072C79.0251 49.8637 78.3642 50.3475 77.5999 50.5767C76.5362 51.0106 75.4389 51.3587 74.3186 51.6175C73.5536 51.7727 72.8163 51.9006 72.0974 52.001C71.487 52.0912 70.8711 52.14 70.254 52.1471C68.9682 52.2066 67.6888 51.9362 66.5396 51.362C65.7594 50.9612 65.1031 50.3585 64.6409 49.6181C64.5013 49.379 64.39 49.1247 64.3091 48.8604C64.2398 48.6352 64.2026 48.4018 64.1984 48.1664C64.2119 47.8581 64.2584 47.5521 64.3367 47.2534C64.4531 46.8071 64.6636 46.3901 64.9542 46.03C65.3893 45.4773 65.9276 45.0124 66.5396 44.6605C67.4879 44.1729 68.5191 43.8634 69.5812 43.7475L69.194 43.6014Z" fill="#20330A"/>
<path d="M90.5038 47.5182H89.7942C89.5546 47.5182 89.3056 47.5182 89.066 47.5182H88.2365C87.8679 47.5182 87.4255 47.5182 86.937 47.4543C86.4236 47.4121 85.9148 47.3266 85.4161 47.1987C84.3952 46.9534 83.4474 46.4715 82.6511 45.7926C82.2145 45.3718 81.8775 44.8604 81.6639 44.2954C81.4504 43.7302 81.3658 43.1254 81.416 42.5241C81.3979 42.2658 81.3979 42.0063 81.416 41.748C81.4472 41.4819 81.5028 41.219 81.5818 40.9628C82.085 39.2794 83.0868 37.7846 84.4576 36.6717C85.9849 35.3505 87.9612 34.6523 89.9878 34.7179C91.6468 34.7179 92.8081 35.074 93.4716 35.7952C94.1064 36.4492 94.5299 37.2756 94.6884 38.169C94.6884 38.3608 94.7436 38.5525 94.762 38.7443C94.7805 38.936 94.762 39.1185 94.762 39.3011C94.7765 39.5596 94.7765 39.8188 94.762 40.0773C94.7463 40.3098 94.7186 40.5414 94.6792 40.7711C94.6792 40.8624 94.6792 40.9537 94.6792 41.0359C94.6792 41.1181 94.6792 41.182 94.6792 41.2459L93.8681 45.1079H94.8173C95.2343 45.084 95.6496 45.0382 96.0616 44.971L96.8911 44.8157C97.1273 44.7578 97.3585 44.6814 97.5825 44.5875C97.7095 44.5237 97.8421 44.4717 97.9788 44.4322H98.2276C98.2729 44.451 98.3138 44.479 98.3475 44.5144C98.3662 44.5832 98.3662 44.6556 98.3475 44.7244C98.3503 44.7518 98.3503 44.7792 98.3475 44.8066C98.3505 44.8491 98.3505 44.8919 98.3475 44.9344C98.3437 44.9678 98.3437 45.0015 98.3475 45.0349C98.3441 45.056 98.3441 45.0775 98.3475 45.0988L98.1723 45.683C98.1333 45.8491 98.0432 45.9992 97.9143 46.1122C97.6952 46.2712 97.4434 46.3803 97.177 46.4318C96.7223 46.5536 96.2606 46.6483 95.7944 46.7147L93.4073 47.0799L92.4118 51.6451H89.6466L90.5038 47.5182ZM91.831 41.2459C91.831 41.1911 91.831 41.1455 91.831 41.0998C91.831 41.0542 91.831 40.9994 91.831 40.9537C91.831 40.9081 91.8864 40.6798 91.9048 40.5337C91.9196 40.3832 91.9442 40.2338 91.9786 40.0864C91.9786 39.8764 91.9786 39.6755 91.9786 39.4838C91.9786 39.292 91.9786 39.1185 91.9786 38.9726C91.9816 38.672 91.919 38.3743 91.7948 38.1002C91.6707 37.826 91.4881 37.5816 91.2597 37.3839C90.7923 36.9878 90.1971 36.7708 89.5822 36.7721C89.3498 36.7738 89.1184 36.7982 88.8909 36.8452C88.647 36.8921 88.4066 36.956 88.172 37.0369C87.1379 37.4307 86.2214 38.0779 85.5083 38.9178C84.7339 39.7408 84.3025 40.8237 84.3009 41.9489V42.0493C84.3009 42.2411 84.3009 42.4693 84.3009 42.725C84.3192 42.9988 84.3847 43.2674 84.4945 43.5193C84.7877 44.1358 85.2809 44.6372 85.8954 44.9436C87.0729 45.4623 88.3615 45.6849 89.6466 45.5917H90.8818L91.831 41.2459ZM103.942 35.9139C103.832 36.334 103.739 36.6717 103.666 36.9365C103.592 37.2013 103.518 37.4569 103.454 37.7035C103.403 37.8409 103.36 37.981 103.325 38.1234C103.325 38.2695 103.242 38.443 103.186 38.6164L102.772 40.0408C102.615 40.5976 102.44 41.2003 102.265 41.8667C102.182 42.2045 102.09 42.5606 101.997 42.9166C101.905 43.2727 101.813 43.638 101.73 43.9941C101.546 44.8157 101.398 45.61 101.269 46.3861C101.149 47.0768 101.084 47.776 101.076 48.4769V48.5499C101.076 48.6412 101.076 48.7599 101.076 48.906C101.085 49.0531 101.103 49.1993 101.131 49.3442C101.183 49.5665 101.277 49.7771 101.408 49.9651C101.479 50.0699 101.571 50.1589 101.679 50.2266C101.787 50.2941 101.908 50.3388 102.034 50.3577H102.643C102.821 50.3264 102.995 50.271 103.159 50.1934C103.31 50.1131 103.455 50.0214 103.592 49.9194L103.979 49.6272V50.5858C103.983 50.604 103.983 50.6227 103.979 50.6406C103.832 50.935 103.583 51.168 103.278 51.2981C102.881 51.5106 102.46 51.6791 102.025 51.8001C101.702 51.8915 101.389 51.9736 101.103 52.0375C100.861 52.0942 100.614 52.1278 100.366 52.138H99.9051C99.4607 52.0111 99.0716 51.7413 98.7991 51.3711C98.4136 50.7745 98.2386 50.068 98.3014 49.3624C98.3036 48.8926 98.3312 48.4233 98.3843 47.9564C98.4397 47.4452 98.5226 46.9338 98.6147 46.3953C98.67 46.0483 98.7253 45.6922 98.7991 45.3543C98.8729 45.0166 98.9466 44.6696 99.0294 44.35C99.1954 43.6106 99.3429 42.9805 99.4811 42.4511C99.6194 41.9215 99.7024 41.6019 99.7393 41.538C99.8497 41.1363 99.9419 40.8076 100.006 40.5428C100.071 40.278 100.126 40.059 100.172 39.849C100.166 39.8251 100.166 39.7999 100.172 39.776C100.178 39.7519 100.178 39.7268 100.172 39.7029C100.172 39.5933 100.237 39.4655 100.265 39.3285C100.292 39.1916 100.329 39.0455 100.366 38.8813C100.403 38.7169 100.458 38.516 100.504 38.3516C100.55 38.1873 100.578 38.0412 100.606 37.8951C100.633 37.749 100.606 37.8038 100.606 37.7764C100.61 37.7432 100.61 37.7093 100.606 37.6761C100.67 37.4387 100.735 37.1921 100.808 36.9365C100.882 36.6808 100.974 36.3705 101.085 36.0235L103.942 35.9139Z" fill="#20330A"/>
<path d="M110.947 42.7433C111.325 42.7433 111.712 42.6611 112.127 42.6428C112.541 42.6246 112.956 42.6428 113.38 42.6428H114.468C115.898 42.6291 117.31 42.9646 118.578 43.6197C119.807 44.2649 120.422 45.4821 120.422 47.2717C120.422 49.0612 119.479 50.7045 117.592 52.2019C115.288 53.7556 112.563 54.5829 109.776 54.5757H108.292C107.825 54.5773 107.359 54.5127 106.91 54.3839C106.698 54.2835 106.597 54.1741 106.597 54.0462C106.592 54.0281 106.592 54.0094 106.597 53.9915L106.818 53.2427C106.818 53.2427 106.818 53.1879 106.818 53.1605C106.816 53.1393 106.816 53.1178 106.818 53.0966C106.833 53.0349 106.865 52.9782 106.91 52.9324C106.936 52.9064 106.968 52.8864 107.003 52.8738C107.038 52.8612 107.075 52.8562 107.113 52.8593H107.306C107.364 52.8497 107.423 52.8497 107.481 52.8593H107.96C108.145 52.8593 108.366 52.8593 108.643 52.905C108.919 52.9507 109.306 52.905 109.785 52.905C111.293 52.9508 112.785 52.5978 114.108 51.8823C115.149 51.3289 116.058 50.5599 116.772 49.6272C117.009 49.2961 117.204 48.9373 117.353 48.559C117.468 48.2676 117.534 47.9589 117.546 47.6461C117.563 47.4516 117.563 47.2561 117.546 47.0617C117.508 46.8416 117.443 46.627 117.353 46.4227C117.072 45.8642 116.625 45.4052 116.071 45.1079C115.116 44.6444 114.054 44.4398 112.993 44.5144C112.605 44.5111 112.217 44.5325 111.832 44.5783C111.476 44.617 111.125 44.6843 110.781 44.7792L110.578 44.834C110.505 44.8456 110.434 44.867 110.366 44.8979L108.597 51.6998H105.831L110.145 34.8549H112.91L110.947 42.7433ZM128.339 34.8549L125.104 46.1122C125.104 46.24 125.03 46.3861 124.984 46.5414C124.938 46.6964 124.883 46.8699 124.818 47.0525C124.754 47.2352 124.745 47.2808 124.717 47.3995C124.683 47.5222 124.658 47.6473 124.643 47.7739C124.582 48.0477 124.526 48.3125 124.477 48.5682C124.428 48.7963 124.403 49.0288 124.404 49.262C124.388 49.4772 124.457 49.69 124.597 49.8555C124.673 49.929 124.765 49.9859 124.865 50.0219C124.965 50.0581 125.071 50.0731 125.178 50.0655C125.46 50.0553 125.739 50.0062 126.007 49.9194C126.403 49.7831 126.785 49.612 127.15 49.4081C127.266 49.3449 127.386 49.29 127.51 49.2437C127.601 49.2277 127.695 49.2277 127.786 49.2437H127.832C127.866 49.2645 127.894 49.2927 127.915 49.3259C127.935 49.3591 127.948 49.3966 127.952 49.4355C127.963 49.5417 127.963 49.6488 127.952 49.7551C127.952 49.892 127.897 50.0473 127.869 50.2025C127.831 50.3661 127.785 50.5276 127.731 50.6863C127.699 50.8125 127.636 50.9289 127.546 51.0241C127.314 51.2581 127.025 51.4308 126.708 51.5264C126.285 51.6945 125.851 51.8319 125.408 51.9371C125.082 52.0342 124.749 52.1074 124.413 52.1562C124.147 52.1984 123.879 52.2228 123.611 52.2293C123.319 52.2458 123.027 52.1893 122.763 52.0649C122.499 51.9404 122.271 51.7521 122.099 51.5172C121.736 50.9783 121.559 50.338 121.592 49.6911C121.579 49.5027 121.579 49.3135 121.592 49.1252C121.592 48.9425 121.638 48.7508 121.675 48.559C121.712 48.3673 121.786 47.9838 121.86 47.71C121.933 47.4361 122.007 47.1439 122.09 46.879C122.173 46.6142 122.21 46.5231 122.256 46.3587C122.302 46.1944 122.357 46.0209 122.403 45.8656L125.528 34.8549H128.339Z" fill="#20330A"/>
<path d="M146.625 44.1674C148.455 43.982 150.227 43.4289 151.833 42.5424C152.866 42.0291 153.672 41.1585 154.1 40.0955C154.145 39.9839 154.176 39.8674 154.192 39.7486C154.201 39.633 154.201 39.5171 154.192 39.4016C154.246 38.8964 154.139 38.3872 153.886 37.9453C153.633 37.5032 153.247 37.1506 152.782 36.9365C151.661 36.4908 150.459 36.2795 149.252 36.3157C148.764 36.3157 148.201 36.3157 147.565 36.3157C146.93 36.3157 146.266 36.3979 145.602 36.4616C144.939 36.5256 144.542 36.5712 144.026 36.6534C143.542 36.7242 143.062 36.8217 142.588 36.9456C142.392 36.9812 142.198 37.03 142.008 37.0917C141.847 37.1345 141.684 37.1651 141.519 37.183C141.48 37.1923 141.439 37.1923 141.399 37.183H141.197C141.132 37.1917 141.067 37.1917 141.003 37.183C140.939 37.183 140.911 37.0917 140.911 36.973C140.902 36.9094 140.902 36.8448 140.911 36.7812C140.936 36.7187 140.958 36.6548 140.975 36.5895L141.197 35.9139C141.326 35.5122 141.934 35.2017 143.04 35.001C144.212 34.7664 145.397 34.5987 146.589 34.4988C147.35 34.4378 148.088 34.3922 148.8 34.3618C149.519 34.3618 150.128 34.3618 150.644 34.3618C152.15 34.2421 153.658 34.5594 154.985 35.2748C155.761 35.7589 156.375 36.4613 156.745 37.2926C156.874 37.6438 156.96 38.0083 157.004 38.379C157.004 38.7352 157.068 39.0455 157.068 39.292C157.068 40.9476 156.109 42.4419 154.192 43.7749C152.275 45.1079 149.624 45.7987 146.238 45.8474L144.754 51.6814H141.989L145.676 36.9821H148.441L146.625 44.1674Z" fill="#20330A"/>
<path d="M170.064 45.0897C170.185 45.0897 170.258 45.0897 170.285 45.0897C170.313 45.0897 170.331 45.1992 170.331 45.3269C170.331 46.1031 170.11 46.5505 169.668 46.6782C169.132 46.8166 168.581 46.8811 168.027 46.8699H164.671C161.6 50.5829 159.106 53.0176 157.189 54.1739C155.678 55.1908 153.936 55.8185 152.119 56V54.5026C152.096 54.3169 152.121 54.1283 152.192 53.9549C152.274 53.8685 152.386 53.8162 152.506 53.8088H152.653C154.338 53.4595 155.899 52.6752 157.179 51.5355C158.603 50.3206 159.934 49.0022 161.161 47.5913C161.263 47.4975 161.358 47.3969 161.446 47.29L161.722 46.9704L156.662 47.0434C156.37 47.0483 156.076 47.027 155.786 46.9795C155.737 46.9773 155.686 46.9649 155.642 46.9433C155.596 46.9217 155.556 46.8913 155.521 46.8539C155.488 46.8164 155.462 46.7726 155.446 46.7252C155.43 46.6779 155.424 46.6278 155.427 46.5777C155.419 46.4806 155.419 46.3828 155.427 46.2857C155.448 46.1577 155.483 46.0324 155.529 45.9113C155.623 45.6997 155.766 45.5124 155.944 45.3634C156.178 45.1862 156.47 45.0986 156.764 45.1171H163.215L164.137 44.0852L164.977 43.1723L165.161 42.944C165.214 42.873 165.272 42.8058 165.336 42.7433C165.945 42.0128 166.581 41.2368 167.253 40.4058C167.926 39.5751 168.774 38.516 169.816 37.2469C170.092 36.9091 170.331 36.5986 170.534 36.334C170.736 36.0692 170.93 35.7861 171.105 35.5578C171.266 35.3824 171.444 35.2263 171.641 35.0923C171.828 34.9679 172.051 34.9042 172.277 34.9097H174.682C174.819 34.9046 174.952 34.9394 175.068 35.0101C175.17 35.074 175.216 35.2382 175.216 35.5122C175.152 35.986 175.048 36.4533 174.903 36.9091C174.691 37.6852 174.451 38.6347 174.194 39.7759C173.935 40.9172 173.76 41.9123 173.558 43.1266C173.362 44.3631 173.242 45.6101 173.197 46.8608C173.189 47.019 173.189 47.1774 173.197 47.3356V48.3308C173.21 48.7077 173.269 49.0817 173.374 49.4446C173.397 49.5898 173.475 49.7207 173.59 49.8133C173.706 49.9057 173.852 49.9533 174 49.9468C174.187 49.9419 174.373 49.9112 174.553 49.8555C174.779 49.788 175.001 49.7056 175.216 49.609C175.397 49.5318 175.572 49.4433 175.742 49.3442C175.908 49.2563 176.067 49.1587 176.221 49.0521L176.378 48.9517L176.534 48.8147V50.1386C176.518 50.3818 176.44 50.6173 176.311 50.8242C176.181 51.0312 176.001 51.2033 175.788 51.3255C175.291 51.6748 174.736 51.9344 174.148 52.0923L173.622 52.2019C173.456 52.2154 173.289 52.2154 173.124 52.2019C172.649 52.269 172.165 52.171 171.755 51.9247C171.345 51.6783 171.035 51.2987 170.875 50.8507C170.545 49.7241 170.393 48.5538 170.423 47.3813C170.429 46.7915 170.475 46.2027 170.561 45.6191C170.654 44.9618 170.755 44.2861 170.894 43.6014C170.94 43.3092 170.995 43.017 171.051 42.6885C171.105 42.3598 171.161 42.1041 171.235 41.7754C171.309 41.4468 171.418 40.9537 171.51 40.5702C171.603 40.1868 171.677 39.8307 171.741 39.5111L171.852 39.0089C171.868 38.8998 171.895 38.7926 171.935 38.6895C171.943 38.6596 171.943 38.6281 171.935 38.5982C171.927 38.5653 171.927 38.5306 171.935 38.4977L171.99 38.2695C172.002 38.1986 172.018 38.1284 172.037 38.0594L172.119 37.7672C172.119 37.6761 172.175 37.5483 172.202 37.4113H172.064C171.733 37.886 171.382 38.3973 171.005 38.9269C170.627 39.4564 170.231 39.986 169.824 40.5154L169.382 41.0907L168.949 41.6749L167.501 43.501L166.175 45.1079L170.064 45.0897Z" fill="#20330A"/>
<path d="M196 36.0235L192.719 47.3995C192.625 47.7202 192.552 48.0466 192.498 48.3764C192.452 48.6573 192.428 48.9411 192.425 49.2255C192.415 49.3339 192.429 49.4432 192.471 49.5446C192.511 49.646 192.573 49.7368 192.655 49.8099C192.795 49.9309 192.968 50.0073 193.153 50.029H193.226C193.647 50.0114 194.057 49.8856 194.415 49.6638L195.954 48.7508V50.0747C195.936 50.2798 195.866 50.4772 195.75 50.648C195.634 50.819 195.475 50.9579 195.291 51.0515C194.836 51.3538 194.34 51.5876 193.816 51.7453C193.48 51.8658 193.135 51.9604 192.784 52.0284C192.523 52.0851 192.258 52.1188 191.991 52.1289C191.657 52.1731 191.317 52.1259 191.008 51.9924C190.7 51.8587 190.434 51.6438 190.24 51.3711C189.934 50.8547 189.759 50.2716 189.733 49.6729V49.3076C189.752 48.8719 189.824 48.4397 189.945 48.0203C190.093 47.4452 190.267 46.8517 190.461 46.1944C190.461 46.0483 190.535 45.9022 190.581 45.747C190.627 45.5917 190.673 45.4456 190.729 45.3088C190.886 44.8523 191.042 44.3957 191.18 44.0489C191.318 43.7019 191.43 43.364 191.53 43.1358H191.282L191.115 43.4279L190.969 43.638C190.894 43.7475 190.83 43.8662 190.756 43.9849L190.452 44.4779C190.221 44.8523 189.981 45.2358 189.714 45.6374C189.447 46.0391 189.161 46.4409 188.876 46.8425C187.915 48.1628 186.808 49.3725 185.576 50.449C184.494 51.4657 183.068 52.0454 181.576 52.0741C180.794 52.0802 180.038 51.8042 179.446 51.2981C179.136 51.0352 178.891 50.7047 178.732 50.3324C178.572 49.9602 178.502 49.5564 178.526 49.1526C178.543 48.4233 178.68 47.702 178.931 47.016C179.198 46.2218 179.623 45.0988 180.203 43.638C180.783 42.1771 181.125 41.2094 181.383 40.4972C181.589 39.9431 181.71 39.3614 181.742 38.7717C181.758 38.5059 181.715 38.2399 181.616 37.9922C181.518 37.7447 181.365 37.5215 181.171 37.3382C180.805 37.026 180.375 36.8012 179.907 36.6808L179.538 36.6077C179.419 36.5991 179.3 36.5991 179.179 36.6077H178.23C178.125 36.6169 178.019 36.5945 177.926 36.5438C177.866 36.5194 177.817 36.4739 177.788 36.4161V36.334C177.783 36.3127 177.783 36.2911 177.788 36.27V36.2153C177.785 36.1849 177.785 36.1542 177.788 36.1239C177.783 36.0967 177.783 36.069 177.788 36.0418C177.791 36.0207 177.791 35.9989 177.788 35.9779L177.963 35.3752C177.989 35.2559 178.044 35.1449 178.125 35.0523C178.206 34.9599 178.308 34.8887 178.424 34.8457C178.674 34.7651 178.936 34.725 179.198 34.727C180.562 34.6275 181.912 35.06 182.958 35.9322C183.743 36.6109 184.242 37.5552 184.36 38.5799C184.365 38.6346 184.365 38.6895 184.36 38.7443V38.8995C184.322 39.423 184.239 39.9422 184.111 40.4515C183.731 41.8501 183.25 43.2201 182.673 44.5509C182.138 45.8748 181.751 46.7695 181.613 47.29C181.472 47.6525 181.387 48.0343 181.363 48.4221C181.36 48.7176 181.448 49.0073 181.613 49.2529C181.724 49.3842 181.867 49.4866 182.028 49.5518C182.189 49.617 182.362 49.6428 182.535 49.6272C182.917 49.6168 183.29 49.5233 183.632 49.3533C184.049 49.1496 184.44 48.895 184.792 48.5956C185.204 48.2862 185.592 47.9474 185.955 47.5822C186.331 47.1987 186.692 46.7969 187.032 46.3953C187.374 45.9935 187.668 45.6374 187.954 45.2632C188.241 44.8888 188.489 44.5601 188.7 44.2587C189.226 43.5284 189.622 42.8892 190.047 42.3415C190.471 41.7936 190.748 41.2459 191.042 40.7163C191.199 40.4424 191.355 40.1686 191.493 39.8947C191.631 39.6207 191.76 39.3285 191.891 39.0273C192.019 38.726 192.277 38.1142 192.471 37.6761C192.665 37.2378 192.876 36.6534 193.107 36.06L196 36.0235ZM190.59 33.8597C190.267 34.0696 189.964 34.2613 189.668 34.4622C189.62 34.4733 189.573 34.4917 189.53 34.517L189.401 34.5992L188.996 34.8457L188.571 35.0832C188.53 35.117 188.484 35.1447 188.433 35.1653L188.304 35.2293C188.12 35.3404 187.929 35.441 187.733 35.5304C187.53 35.6181 187.32 35.6883 187.106 35.7404C187.039 35.7455 186.97 35.7455 186.904 35.7404H186.673C186.451 35.726 186.233 35.6638 186.037 35.5578C185.775 35.4251 185.525 35.2692 185.29 35.0923L184.839 34.727C184.686 34.6019 184.544 34.4644 184.414 34.3161C184.155 34.0798 183.915 33.8234 183.696 33.5493C183.553 33.4025 183.454 33.2191 183.409 33.0197C183.416 32.9243 183.44 32.8311 183.484 32.7457L183.659 32.4354L183.899 32.1524C183.98 32.0544 184.071 31.963 184.166 31.8784L184.414 31.7232C184.481 31.6893 184.552 31.6706 184.627 31.6684C184.794 31.6871 184.95 31.7611 185.069 31.8784C185.29 32.0735 185.524 32.2534 185.77 32.4172C186.066 32.6176 186.374 32.8005 186.692 32.9649C186.859 33.0661 187.048 33.1256 187.244 33.1384C187.541 33.1184 187.834 33.0538 188.11 32.9466C188.489 32.8188 188.904 32.6637 189.336 32.4811C189.455 32.4386 189.568 32.3868 189.678 32.3259L190.019 32.1706C190.267 32.061 190.488 31.9515 190.701 31.8328L191.614 31.349C191.695 31.3112 191.782 31.2896 191.872 31.2851C191.903 31.2854 191.935 31.2929 191.964 31.3071C191.992 31.3214 192.018 31.3419 192.037 31.3672C192.096 31.437 192.132 31.5231 192.139 31.6136V31.7415C192.139 31.8054 192.139 31.8784 192.065 31.9789L191.964 32.2711L191.724 33.0197L190.59 33.8597Z" fill="#20330A"/>
<path d="M71.775 31.8693C71.7796 31.8361 71.7796 31.8022 71.775 31.7689C71.7658 31.7391 71.7658 31.7073 71.775 31.6775C71.7299 31.4637 71.7491 31.2416 71.8303 31.0385C71.8787 30.9278 71.9505 30.8288 72.0413 30.7484C72.1321 30.6679 72.2394 30.6081 72.3557 30.5728C72.7964 30.3976 73.2884 30.3976 73.7291 30.5728C73.9122 30.646 74.0779 30.7561 74.216 30.8959C74.354 31.0358 74.4612 31.2024 74.5309 31.3855C74.5394 31.4245 74.5394 31.465 74.5309 31.5042C74.5257 31.5436 74.5257 31.5834 74.5309 31.6228C74.5575 31.8676 74.5128 32.1147 74.4019 32.335C74.3376 32.4603 74.2481 32.5713 74.1386 32.6609C74.0292 32.7503 73.9024 32.8166 73.766 32.8553C73.4402 33.0003 73.0711 33.0167 72.7336 32.901C72.4861 32.8045 72.2673 32.6473 72.0977 32.4446C72.0046 32.3525 71.9295 32.2441 71.8764 32.125C71.8272 32.0335 71.7841 31.939 71.7475 31.8419L71.775 31.8693ZM77.0195 30.7281C77.0826 30.561 77.1799 30.4088 77.3052 30.2806L77.4527 30.1895C77.4969 30.1561 77.5468 30.1314 77.6002 30.1164C78.0256 29.9612 78.4928 29.9612 78.9182 30.1164C79.1165 30.1791 79.2972 30.2869 79.4462 30.4311C79.595 30.5755 79.7077 30.7521 79.7754 30.9472C79.8306 31.0741 79.8592 31.2107 79.8592 31.349C79.8592 31.487 79.8306 31.6239 79.7754 31.7506C79.6855 31.9699 79.5314 32.1574 79.333 32.2893L79.2224 32.3624L79.1025 32.4172C79.0133 32.4477 78.9203 32.4661 78.826 32.472C78.7159 32.4861 78.6043 32.4861 78.4943 32.472C78.2059 32.4589 77.9261 32.3707 77.6832 32.2163C77.3786 32.0165 77.1562 31.7153 77.0564 31.3672C76.974 31.1638 76.9611 30.9393 77.0195 30.7281Z" fill="#20330A"/>
<path d="M50.8571 19.3112H49V10.1331H55.1842V11.8494H50.8571V19.3112Z" fill="#417A00"/>
<path d="M64.8895 19.3112H62.7347L62.1917 17.7601H58.4865L57.9346 19.3112H55.806L59.1872 10.1331H61.5259L64.8895 19.3112ZM61.7187 16.0438L60.3521 12.1064L58.9944 16.0438H61.7187Z" fill="#417A00"/>
<path d="M65.4411 21V17.7509C65.7182 17.7252 65.9855 17.6309 66.2208 17.4757C66.4612 17.2506 66.6396 16.9621 66.7375 16.6403C66.9314 16.0465 67.0548 15.4301 67.1054 14.8048L67.6135 10.1239H73.8239V17.5581H74.6123V20.9633H72.7464V19.3112H67.2982V21H65.4411ZM68.945 14.9792C68.9042 15.9582 68.5242 16.8882 67.8762 17.5948H71.9406V11.8769H69.3128L68.945 14.9792Z" fill="#417A00"/>
<path d="M84.1075 19.3112H82.0052L81.4623 17.7601H77.7044L77.1527 19.3112H74.9978L78.3701 10.1331H80.709L84.1075 19.3112ZM80.9366 16.0438L79.579 12.1064L78.2125 16.0438H80.9366Z" fill="#417A00"/>
<path d="M89.8889 19.3112H85.1501V10.1331H89.7487C90.0846 10.1105 90.4213 10.1589 90.7389 10.2756C91.0563 10.3923 91.3482 10.5748 91.597 10.8123C91.8123 11.0234 91.9829 11.2795 92.0975 11.5641C92.2122 11.8488 92.2684 12.1555 92.2627 12.4644C92.2779 12.9674 92.1263 13.4604 91.8335 13.8594C91.567 14.2229 91.1846 14.4737 90.7561 14.5662C90.9921 14.6032 91.2189 14.6888 91.4233 14.8179C91.6277 14.9471 91.8058 15.1174 91.9474 15.3187C92.2684 15.7439 92.4387 16.2727 92.4292 16.8147C92.4396 17.142 92.386 17.4681 92.2714 17.7727C92.1569 18.0774 91.9841 18.3542 91.7634 18.5862C91.5142 18.834 91.2196 19.026 90.8974 19.1507C90.5751 19.2753 90.232 19.33 89.8889 19.3112ZM89.337 13.8044C89.6129 13.8199 89.8836 13.721 90.0903 13.5291C90.268 13.3372 90.3674 13.0804 90.3674 12.8131C90.3674 12.5458 90.268 12.2891 90.0903 12.0972C89.9904 12.0004 89.8732 11.9254 89.7454 11.8765C89.6176 11.8277 89.4817 11.806 89.3458 11.8127H87.0158V13.8044H89.337ZM89.4071 17.6042C89.7046 17.6217 89.9978 17.5238 90.2305 17.3288C90.3311 17.2291 90.41 17.1077 90.4613 16.973C90.5129 16.8383 90.5357 16.6935 90.5283 16.5486C90.5325 16.4069 90.5082 16.2657 90.4568 16.1345C90.4056 16.0032 90.3284 15.8848 90.2305 15.7868C90.1198 15.6805 89.99 15.5982 89.8486 15.5445C89.7073 15.491 89.5573 15.4673 89.4071 15.4747H87.007V17.6042H89.4071Z" fill="#417A00"/>
<path d="M102.283 19.3112H100.155L99.6204 17.7601H95.8714L95.3196 19.3112H93.1998L96.5808 10.1331H98.911L102.283 19.3112ZM99.1123 16.0438L97.7723 12.1064L96.4057 16.0438H99.1123Z" fill="#417A00"/>
<path d="M102.826 19.4764V17.7509C103.043 17.7599 103.258 17.7096 103.45 17.6049C103.642 17.5003 103.804 17.3451 103.921 17.1544C104.254 16.43 104.448 15.6441 104.491 14.8415L105.007 10.1607H111.218V19.3387H109.343V11.9045H106.716L106.374 15.0068C106.301 15.7871 106.145 16.5568 105.91 17.3012C105.761 17.8218 105.49 18.2951 105.121 18.678C104.84 18.9714 104.499 19.1942 104.123 19.3295C103.701 19.4503 103.263 19.5 102.826 19.4764Z" fill="#417A00"/>
<path d="M113.189 10.1607H115.054V13.4097H117.279C117.674 13.3876 118.069 13.452 118.438 13.599C118.808 13.746 119.144 13.9722 119.425 14.2632C119.929 14.836 120.208 15.5863 120.208 16.3651C120.208 17.1438 119.929 17.8941 119.425 18.4668C119.143 18.7579 118.805 18.9834 118.434 19.1289C118.062 19.2743 117.666 19.3365 117.271 19.3112H113.189V10.1607ZM117.043 15.1259H115.063V17.595H117.043C117.363 17.5972 117.674 17.4801 117.919 17.2645C118.041 17.1503 118.138 17.0081 118.2 16.8491C118.262 16.69 118.289 16.5182 118.278 16.3468C118.289 16.175 118.263 16.003 118.201 15.8438C118.138 15.6846 118.042 15.5426 117.919 15.4288C117.671 15.2202 117.36 15.1128 117.043 15.1259Z" fill="#417A00"/>
<path d="M129.49 19.3112H127.615V15.4656H123.49V19.3112H121.633V10.1331H123.49V13.7217H127.615V10.1606H129.49V19.3112Z" fill="#417A00"/>
<path d="M133.326 19.3112H131.469V10.1331H133.326V19.3112Z" fill="#417A00"/>
<path d="M142.804 19.3112H140.509L137.881 15.64L137.198 16.4935V19.302H135.341V10.1239H137.189V14.2082L140.281 10.1239H142.576L139.073 14.4193L142.804 19.3112Z" fill="#417A00"/>
<path d="M149.392 19.3112H147.534V10.1331H151.616C152.012 10.1079 152.407 10.17 152.779 10.3155C153.151 10.4609 153.488 10.6865 153.772 10.9775C154.03 11.2543 154.232 11.5833 154.367 11.9446C154.5 12.3059 154.563 12.6919 154.551 13.0793C154.56 13.467 154.495 13.8529 154.359 14.2139C154.225 14.5749 154.021 14.9037 153.763 15.181C153.482 15.4725 153.145 15.6992 152.776 15.8462C152.406 15.9932 152.012 16.0573 151.616 16.0347H149.392V19.3112ZM151.371 14.3459C151.708 14.3625 152.037 14.2406 152.291 14.0062C152.413 13.8924 152.51 13.7505 152.572 13.5913C152.634 13.4322 152.661 13.26 152.649 13.0885C152.661 12.9169 152.634 12.7451 152.572 12.586C152.509 12.427 152.413 12.2849 152.291 12.1707C152.034 11.943 151.706 11.825 151.371 11.8402H149.392V14.3091L151.371 14.3459Z" fill="#417A00"/>
<path d="M164.116 19.3112H161.996L161.452 17.7601H157.713L157.16 19.3112H155.032L158.413 10.1331H160.751L164.116 19.3112ZM160.945 16.0438L159.587 12.1064L158.212 16.0438H160.945Z" fill="#417A00"/>
<path d="M169.424 19.4764C168.812 19.4938 168.201 19.3833 167.63 19.1518C167.059 18.9201 166.538 18.5719 166.095 18.1272C165.654 17.6901 165.308 17.1594 165.078 16.5707C164.849 15.982 164.742 15.3486 164.764 14.713C164.746 14.0822 164.856 13.4547 165.086 12.8712C165.316 12.2877 165.659 11.7613 166.095 11.3263C166.538 10.8877 167.059 10.5451 167.629 10.3183C168.2 10.0915 168.806 9.98486 169.414 10.0046C170.17 9.9671 170.919 10.1584 171.573 10.5555C172.228 10.9527 172.758 11.539 173.102 12.2441L171.508 13.0701C171.297 12.6896 170.996 12.3733 170.632 12.1523C170.283 11.8757 169.862 11.7187 169.424 11.7026C169.058 11.6914 168.692 11.7608 168.354 11.9062C168.014 12.0517 167.707 12.2699 167.453 12.547C166.956 13.145 166.683 13.9111 166.683 14.7038C166.683 15.4966 166.956 16.2626 167.453 16.8606C167.706 17.1393 168.012 17.3593 168.352 17.5064C168.691 17.6534 169.056 17.7241 169.424 17.7142C169.853 17.7151 170.274 17.5844 170.632 17.338C170.996 17.1169 171.297 16.8005 171.508 16.42L173.102 17.2095C172.756 17.9131 172.228 18.4996 171.576 18.901C170.925 19.3022 170.179 19.5017 169.424 19.4764Z" fill="#417A00"/>
<path d="M173.926 19.4764V17.7509C174.142 17.7593 174.355 17.7085 174.545 17.6038C174.735 17.4992 174.897 17.3443 175.012 17.1544C175.353 16.4325 175.55 15.6455 175.591 14.8415L176.107 10.1607H182.309V19.3387H180.443V11.9045H177.816L177.482 14.9792C177.405 15.759 177.249 16.5281 177.018 17.2737C176.869 17.7942 176.598 18.2676 176.23 18.6504C175.949 18.9438 175.607 19.1667 175.231 19.302C174.808 19.433 174.367 19.4919 173.926 19.4764Z" fill="#417A00"/>
<path d="M186.154 19.3112H184.288V10.1331H186.154V19.3112Z" fill="#417A00"/>
<path d="M196 19.3112H194.125V15.4656H189.992V19.3112H188.133V10.1331H189.992V13.7217H194.125V10.1606H195.991L196 19.3112Z" fill="#417A00"/>
<path d="M18.5195 23.05C16.8872 21.4332 24.0457 17.2922 22.4864 19.4569C22.4864 19.4569 19.2764 20.975 18.8386 22.8074C18.8179 22.8757 18.7759 22.9356 18.7186 22.9792C18.6614 23.0227 18.5917 23.0475 18.5195 23.05Z" fill="#20330A"/>
<path d="M11.9811 26.0772C11.9134 26.0823 11.8458 26.0671 11.7871 26.0339C11.7283 26.0006 11.6811 25.9506 11.6516 25.8905C11.6221 25.8304 11.6116 25.7629 11.6216 25.6969C11.6316 25.6308 11.6615 25.5693 11.7074 25.5202C15.4736 21.523 20.9815 22.0619 21.1548 22.8972C20.8904 23.5171 15.5283 22.0709 11.9811 26.0772Z" fill="#20330A"/>
<path d="M36.9219 0.135422C38.0709 1.4379 36.7579 6.89032 38.2898 12.4056C39.6395 19.0886 39.4023 23.1847 33.2926 25.9873C28.961 27.9544 23.3619 25.9244 21.7022 21.9721C21.5817 21.6682 21.3749 21.4048 21.1064 21.2136C20.8381 21.0224 20.5193 20.9115 20.1885 20.8942C17.8085 20.8223 11.7077 19.8342 12.6653 13.0703C15.1913 1.06962 30.0554 5.81242 36.9219 0.135422Z" fill="url(#paint0_linear_454_6360)"/>
<path d="M36.9218 0.0905228C37.2455 0.529314 37.421 1.05721 37.4234 1.5996C37.5146 2.11161 37.5146 2.6326 37.5146 3.15358C37.5146 4.18658 37.5146 5.21958 37.5146 6.26156C37.561 8.32986 37.8674 10.3845 38.4266 12.3787C38.7654 13.8581 39 15.3587 39.1287 16.8699C39.2814 18.4128 39.0916 19.9698 38.5724 21.4332C37.9538 22.8934 36.9138 24.1426 35.5815 25.0262C35.2622 25.2508 34.9157 25.4393 34.5874 25.6459L33.5478 26.176C32.8282 26.5155 32.064 26.7543 31.2772 26.8855C29.7012 27.1645 28.0793 27.0455 26.5628 26.5397C25.0463 26.0339 23.6847 25.1579 22.6049 23.9932C22.0822 23.4006 21.6576 22.7307 21.3465 22.008C21.2076 21.7365 20.9839 21.5161 20.7082 21.3793C20.5739 21.3144 20.4286 21.2749 20.2796 21.2625H19.7142C18.1118 21.1861 16.5499 20.7399 15.1547 19.96C14.4386 19.5485 13.8178 18.9938 13.3324 18.3317C12.8472 17.6695 12.5081 16.9146 12.3369 16.1155C12.0143 14.5381 12.1373 12.9038 12.6925 11.3906C13.1913 9.87484 14.0548 8.50036 15.2094 7.38438C16.3703 6.28625 17.7574 5.44687 19.2765 4.92315C22.2493 3.83626 25.3589 3.58475 28.3956 3.12664C31.4321 2.66852 34.4323 2.02178 36.9218 0.0905228ZM36.9218 0.180344C35.7296 1.14685 34.3619 1.88147 32.8913 2.34515C31.4185 2.82239 29.917 3.20938 28.3956 3.50391C25.3766 3.97346 22.4047 4.7008 19.5136 5.67768C18.1341 6.20165 16.875 6.99273 15.8113 8.00418C14.7648 9.02704 13.9856 10.2846 13.5406 11.6691C13.0277 13.0165 12.8984 14.4764 13.1668 15.8909C13.306 16.5801 13.5895 17.2333 13.9993 17.8087C14.4091 18.384 14.9362 18.869 15.5468 19.2323C16.8261 19.9685 18.2628 20.3993 19.7415 20.4899H20.3252C20.5601 20.5114 20.7887 20.5753 21 20.6786C21.4168 20.888 21.7529 21.2253 21.9575 21.6397C22.2383 22.3182 22.6261 22.9488 23.1065 23.5081C24.0953 24.6051 25.3492 25.4387 26.7518 25.9317C28.1545 26.4247 29.6608 26.5612 31.1313 26.3287C32.6176 26.0613 34.027 25.479 35.2622 24.6219C36.5217 23.8191 37.5142 22.6697 38.1164 21.3164C38.649 19.9179 38.8668 18.4223 38.7548 16.9328C38.6608 15.4248 38.4657 13.9244 38.1711 12.4416C37.6754 10.421 37.4273 8.34923 37.4325 6.27053V3.16256C37.4325 2.64158 37.4325 2.12957 37.3504 1.61756C37.3309 1.11087 37.1837 0.616952 36.9218 0.180344Z" fill="#20330A"/>
<path d="M29.6543 19.7085C27.4839 20.1307 23.6265 17.7953 23.9001 16.6813L32.3991 7.18676C32.4204 7.16211 32.447 7.14232 32.4769 7.12875C32.5068 7.11517 32.5393 7.10815 32.5724 7.10815C32.6053 7.10815 32.6378 7.11517 32.6677 7.12875C32.6976 7.14232 32.7242 7.16211 32.7455 7.18676C33.4933 7.95028 36.5482 12.6302 32.3534 12.0373C34.7699 13.8878 33.6757 16.8969 30.6482 15.4417C32.0434 17.2652 32.2987 19.7983 29.6543 19.7085ZM24.3651 16.843C24.9853 18.388 29.6087 20.3372 31.1497 18.6845C32.2075 18.2173 28.952 14.4177 30.0919 14.6333C34.0861 16.7172 34.004 13.9058 31.405 11.687C31.4598 11.4894 31.6422 11.5164 31.788 11.5343C35.8917 12.235 33.6119 9.28868 32.5541 7.68978L24.3651 16.843Z" fill="#20330A"/>
<path d="M24.0732 17.0586C23.5899 16.8969 16.7779 14.4806 17.6899 12.8458C21.0913 12.8458 22.9972 13.1063 25.2769 12.2619C23.6994 12.2619 21.6293 10.5642 21.8664 10.142C22.7783 10.2049 26.6357 10.9145 28.1585 10.142C27.3834 9.55816 25.4229 8.74972 26.1889 8.3455C28.7696 8.49821 32.1801 7.19574 32.4354 7.67181C32.3259 8.23771 29.3987 8.52516 26.8636 8.78565C27.575 9.45035 28.6875 9.68391 28.888 10.2049C27.7573 11.175 24.2374 11.1032 22.833 10.69C23.2525 11.5882 26.125 11.7409 26.271 12.1631C24.5566 13.4925 21.6294 13.3847 18.1914 13.241C18.2097 15.0106 25.3681 16.3401 24.0732 17.0586Z" fill="#20330A"/>
</g>
<defs>
<linearGradient id="paint0_linear_454_6360" x1="23.1431" y1="24.3704" x2="31.7849" y2="-3.05716" gradientUnits="userSpaceOnUse">
<stop stop-color="#62A219"/>
<stop offset="1" stop-color="#AEEB67"/>
</linearGradient>
<clipPath id="clip0_454_6360">
<rect width="196" height="56" fill="white"/>
</clipPath>
</defs>
</svg>
