<svg width="160" height="140" viewBox="0 0 160 140" fill="none" xmlns="http://www.w3.org/2000/svg">
<path d="M158 119.999H2M149.78 119.999C153.355 114.943 155.484 100.565 155.484 93.8567C155.484 78.7335 144.775 66.1829 130.668 63.5979C128.868 63.268 127.495 61.8811 126.932 60.1074C124.644 52.9051 118.023 47.6937 110.193 47.6937C108.206 47.6918 106.234 48.0337 104.359 48.705C102.73 49.2889 100.928 49.0912 99.5851 47.9839C93.5419 43.0003 85.863 40 77.4839 40C64.3896 40 52.9747 47.2861 46.9082 58.096M88.9124 120C89.8522 116.951 90.248 105.466 89.9846 102.044C89.1962 91.804 82.1539 82.9275 72.5757 79.7349C68.4086 78.3458 64.4047 78.1823 60.6761 78.8455C59.0847 79.1283 57.4374 78.6632 56.3087 77.4852C49.8051 70.6978 40.2504 66.962 29.902 68.5895C16.9534 70.6258 6.60435 81.3749 4.81333 94.6041C4.00414 100.582 4.88145 114.478 7.02935 119.489M34.7098 86.163L42.2584 119.999M24.6451 96.4213L38.7984 101.016M54.8388 119.999L64.9032 93.8567M117.742 119.999L105.161 75.9044M110.193 88.7276L120.258 81.0338M80 83.5981L87.5483 63.0812M75.5968 62.44L83.1451 71.7366M138.351 96.5864L132 119.358" stroke="#20330A" stroke-width="2" stroke-miterlimit="10" stroke-linecap="round" stroke-linejoin="round"/>
</svg>
