<svg width="160" height="140" viewBox="0 0 160 140" fill="none" xmlns="http://www.w3.org/2000/svg">
<path d="M74.3999 158V122.774M85.5997 122.774V158M103.486 85.9811C117.579 107.575 136 127.807 136 127.807C99.6002 125.29 80.0002 120.258 80.0002 120.258C80.0002 120.258 60.4001 125.29 24 127.807C24 127.807 42.5106 107.476 56.6162 85.8238M88.4046 82.4235C83.2057 81.0804 79.9998 80 79.9998 80C79.9998 80 57.5998 87.5483 35.1998 87.5483L65.9997 47.2902M93.9996 47.2902L124.8 87.5483C115.937 87.5483 107.075 86.3668 99.5995 84.9386M58.7277 33.2917C66.7385 22.366 76.3472 8.83795 79.9995 2C86.7196 14.5804 113.6 49.8063 113.6 49.8063C99.5995 49.8063 79.9995 42.2577 79.9995 42.2577C79.9995 42.2577 60.3998 49.8063 46.3997 49.8063C46.3997 49.8063 48.6844 46.8125 52.0879 42.2584M68.7997 158H91.1996" stroke="#20330A" stroke-width="2" stroke-miterlimit="10" stroke-linecap="round" stroke-linejoin="round"/>
</svg>
