<svg width="160" height="140" viewBox="0 0 160 140" fill="none" xmlns="http://www.w3.org/2000/svg">
<path d="M70.7564 100.03C69.9574 98.6908 68.9639 97.4309 67.8699 96.2601C65.7867 94.0303 63.4308 92.0666 61.3996 89.7891C59.2117 87.3355 57.423 84.5259 56.1105 81.5076M49.6208 79.6745C49.7045 81.9238 49.9895 84.1561 50.6599 86.2987C51.2795 88.2799 52.2167 90.1447 53.2042 91.9693C56.3549 97.7909 60.1364 103.534 62.0899 109.767M52.6899 141.375C51.9377 150.322 43.9674 155.492 40.6267 157.28C40.2773 157.467 40.4095 157.996 40.8055 157.996L89.148 158C89.4849 158 89.6568 157.594 89.4202 157.354C86.6371 154.526 75.9089 143.01 77.0833 134.63C78.9964 120.983 90.6705 105.716 94.3477 93.6536M75.5936 88.3675C75.2246 89.6466 75.0483 91.0189 74.6108 92.2327C73.1211 96.3646 71.1811 100.806 67.9417 103.767C60.0636 110.976 56.1892 120.2 54.2114 130.139M113.831 6.93676C110.417 3.86666 105.91 2 100.969 2C93.5702 2 87.1443 6.1872 83.9039 12.3334C83.7508 12.6237 83.3693 12.6971 83.1333 12.4702C80.8774 10.301 77.8039 8.98485 74.423 9.04197C67.9567 9.15152 62.5855 14.4335 62.3396 20.9328C62.2611 23.0066 62.6917 24.9716 63.5139 26.7133C63.6599 27.0225 63.4511 27.3806 63.1121 27.4089C60.6899 27.6116 58.5042 28.6493 56.8392 30.2357C56.7498 30.3225 56.6311 30.3722 56.5067 30.3747C56.3824 30.3772 56.2617 30.3324 56.1689 30.2492C53.9011 28.2378 50.9283 27.0121 47.6689 27.0027C40.7567 26.9829 34.9536 32.6002 34.7214 39.548C34.6485 41.6244 35.074 43.688 35.962 45.5645C35.9991 45.6421 36.0151 45.728 36.0086 45.8138C36.002 45.8996 35.9731 45.9821 35.9246 46.0531C35.8762 46.124 35.8101 46.1809 35.7328 46.218C35.6555 46.2551 35.5699 46.2712 35.4845 46.2645C35.228 46.2467 34.971 46.2378 34.7139 46.2378C29.2117 46.2378 24.6242 50.1645 23.5639 55.3831C23.5474 55.4668 23.5094 55.5447 23.4536 55.609C23.3978 55.6734 23.3263 55.722 23.246 55.75C23.1658 55.778 23.0796 55.7844 22.9961 55.7686C22.9127 55.7528 22.8348 55.7153 22.7702 55.6599C20.6139 53.8488 17.748 52.8642 14.6517 53.1941C9.65389 53.7264 5.61827 57.7639 5.06733 62.7876C4.3467 69.3594 9.44389 74.9211 15.8326 74.9211C16.5807 74.9213 17.3267 74.8438 18.0589 74.6897C18.3451 74.6295 18.6092 74.8454 18.642 75.1376C19.2508 80.5744 23.8361 84.8005 29.4048 84.8005C33.8136 84.8005 37.6052 82.1507 39.2961 78.3493C39.4177 78.0759 39.7611 77.9761 40.007 78.1446C41.8013 79.3764 43.9247 80.034 46.098 80.0311C48.7489 80.0311 51.1755 79.0718 53.058 77.4817C53.1175 77.4316 53.1882 77.3966 53.264 77.3796C53.3399 77.3626 53.4187 77.3642 53.4938 77.3842C53.5689 77.4042 53.6381 77.442 53.6956 77.4945C53.7531 77.547 53.7972 77.6126 53.8242 77.6857C55.3524 81.839 59.3236 84.8005 63.9849 84.8005C66.7464 84.8005 69.2658 83.7606 71.1789 82.0497C71.4271 81.8277 71.8224 81.9112 71.9517 82.2185C74.7811 88.9378 81.3952 93.6533 89.1074 93.6533C98.3671 93.6533 106.045 86.8565 107.486 77.9538C107.546 77.5828 107.982 77.4224 108.274 77.6569C110.189 79.1965 112.569 80.034 115.021 80.0308C117.316 80.0343 119.552 79.3019 121.404 77.9403C121.463 77.8971 121.53 77.8678 121.602 77.8545C121.674 77.8413 121.748 77.8445 121.818 77.8639C121.888 77.8832 121.953 77.9183 122.008 77.9664C122.063 78.0145 122.107 78.0745 122.136 78.1418C123.779 82.0541 127.628 84.8002 132.117 84.8002C137.62 84.8002 142.162 80.673 142.856 75.3285C142.89 75.0673 143.111 74.8702 143.372 74.89C143.634 74.9098 143.899 74.9207 144.166 74.9207C150.508 74.9207 155.577 69.4403 154.946 62.9317C154.475 58.0646 150.728 54.0522 145.928 53.2735C144.514 53.0411 143.068 53.0919 141.674 53.4229C141.381 53.4926 141.106 53.2735 141.079 52.9721C140.692 48.6349 138.001 45.1571 132.599 44.9016C132.515 44.8981 132.434 44.873 132.363 44.8287C132.291 44.7844 132.232 44.7223 132.192 44.6486C132.151 44.5748 132.13 44.4918 132.131 44.4075C132.131 44.3233 132.154 44.2406 132.195 44.1674C133.257 42.3004 133.814 40.187 133.811 38.0369C133.811 31.2028 128.302 25.6624 121.506 25.6624C121.144 25.6624 120.786 25.679 120.433 25.7107C120.107 25.7399 119.855 25.4399 119.917 25.1166C120.484 22.1894 120.374 19.1706 119.595 16.293M94.0871 63.0211C94.0871 59.3518 97.043 56.3787 100.688 56.3787C102.07 56.3787 103.354 56.8069 104.411 57.5338C105.114 52.9743 109.051 49.0743 113.762 49.4849C122.228 50.2225 123.166 59.585 123.166 59.585C123.166 59.585 124.067 58.9811 125.246 59.0018C128.894 59.0662 131.847 61.9746 131.847 65.6408M42.5961 61.9517C42.5961 57.7623 45.9745 54.3648 50.1402 54.3648C51.2955 54.3648 52.3867 54.6263 53.3664 55.0918C53.2778 54.5345 53.2337 53.9709 53.2345 53.4066C53.2345 47.488 58.0049 42.6906 63.8867 42.6906C69.7717 42.6906 74.5421 47.488 74.5421 53.4066M83.7836 35.5168C84.8014 30.9827 89.5093 27.9434 94.6649 28.6371C100.09 29.3672 103.956 33.9546 103.3 38.8832" stroke="#20330A" stroke-width="2" stroke-miterlimit="10" stroke-linecap="round" stroke-linejoin="round"/>
</svg>
