<svg width="32" height="32" viewBox="0 0 32 32" fill="none" xmlns="http://www.w3.org/2000/svg">
<path fill-rule="evenodd" clip-rule="evenodd" d="M15 8.35296C15.0016 8.15666 15.1891 7.99864 15.4188 8.00001C17.8325 8.01438 19.8726 8.70107 21.5107 10.0657C23.1624 11.4418 23.9793 13.3152 24 15.6419C24.0017 15.8382 23.8169 15.9985 23.5873 16C23.3576 16.0015 23.1699 15.8436 23.1682 15.6473C23.1488 13.467 22.3898 11.7909 20.93 10.5747C19.4566 9.34721 17.6271 8.72404 15.413 8.71086C15.1833 8.70949 14.9984 8.54925 15 8.35296ZM15.7343 10.1733C15.751 9.9775 15.9503 9.83041 16.1794 9.84473C17.926 9.95397 19.3318 10.464 20.3558 11.4192C21.3687 12.3651 21.8502 13.5419 21.8153 14.922C21.8103 15.1182 21.6201 15.2739 21.3905 15.2697C21.1608 15.2654 20.9787 15.1029 20.9837 14.9066C21.0145 13.6895 20.5957 12.6962 19.7423 11.8993C18.8915 11.1057 17.7023 10.6527 16.1187 10.5537C15.8896 10.5394 15.7175 10.3691 15.7343 10.1733ZM16.3647 12.0882C16.3767 11.8921 16.5723 11.7415 16.8017 11.7517C17.66 11.79 18.374 12.012 18.8825 12.4613C19.3891 12.909 19.6375 13.5343 19.681 14.2853C19.6924 14.4814 19.5157 14.6482 19.2863 14.6579C19.0568 14.6677 18.8616 14.5166 18.8503 14.3206C18.8129 13.6777 18.6065 13.24 18.2846 12.9555C17.9646 12.6728 17.4763 12.4936 16.7584 12.4616C16.529 12.4514 16.3528 12.2842 16.3647 12.0882Z" fill="white"/>
<path d="M17.0219 19.8913C17.0219 19.8913 17.5521 19.9361 17.8376 19.5844L18.3942 18.8842C18.6627 18.537 19.3106 18.3155 19.9451 18.669C20.4206 18.9401 20.8822 19.2349 21.3282 19.5522C21.7493 19.8618 22.6115 20.5812 22.6142 20.5812C23.025 20.928 23.1198 21.4372 22.8402 21.9741C22.8402 21.9772 22.8379 21.9826 22.8379 21.9852C22.5299 22.5192 22.1389 23.0006 21.6795 23.4116C21.6741 23.4143 21.6741 23.417 21.6692 23.4197C21.2701 23.7532 20.8779 23.9427 20.4928 23.9883C20.4361 23.9983 20.3785 24.0019 20.321 23.9991C20.1512 24.0007 19.9822 23.9747 19.8207 23.9221L19.8082 23.9038C19.2149 23.7365 18.2242 23.3177 16.5744 22.4076C15.6197 21.8872 14.7108 21.2868 13.8575 20.613C13.4297 20.2755 13.0217 19.9136 12.6354 19.5294L12.5119 19.4059C12.4981 19.3924 12.4847 19.3786 12.4708 19.3647C12.0865 18.9785 11.7246 18.5705 11.387 18.1428C10.7133 17.2896 10.1129 16.3809 9.59228 15.4265C8.68215 13.7764 8.26333 12.7867 8.09598 12.1925L8.07763 12.18C8.02518 12.0185 7.99933 11.8496 8.00112 11.6798C7.99799 11.6223 8.00144 11.5647 8.01141 11.508C8.05944 11.1235 8.24931 10.7311 8.58102 10.3308C8.58371 10.3259 8.58639 10.3259 8.58908 10.3205C8.99998 9.86118 9.48153 9.47029 10.0156 9.16261C10.0183 9.16261 10.0236 9.15993 10.0268 9.15993C10.5637 8.88029 11.0729 8.97514 11.4193 9.38364C11.4219 9.38632 12.1401 10.2485 12.4484 10.6695C12.7658 11.1159 13.0606 11.578 13.3317 12.0538C13.6852 12.6878 13.4637 13.337 13.1165 13.6046L12.4162 14.1612C12.0627 14.4467 12.1092 14.9768 12.1092 14.9768C12.1092 14.9768 13.1464 18.9021 17.0219 19.8913Z" fill="white"/>
</svg>
