<svg width="32" height="32" viewBox="0 0 32 32" fill="none" xmlns="http://www.w3.org/2000/svg">
<path d="M24.6783 21.7213C24.3116 22.7717 22.8563 23.6429 21.6955 23.8973C20.9013 24.0688 19.864 24.2056 16.372 22.737C11.9055 20.8597 9.02906 16.2552 8.80487 15.9565C8.59019 15.6578 7 13.5184 7 11.3057C7 9.09313 8.10762 8.01573 8.55409 7.55316C8.92077 7.17346 9.52682 7 10.1082 7C10.2963 7 10.4654 7.00964 10.6173 7.01735C11.0638 7.03662 11.288 7.0636 11.5825 7.77866C11.9492 8.67489 12.8421 10.8875 12.9485 11.1149C13.0568 11.3424 13.1651 11.6507 13.0131 11.9495C12.8706 12.2579 12.7452 12.3947 12.521 12.6568C12.2968 12.919 12.084 13.1194 11.8599 13.4008C11.6547 13.6456 11.4229 13.9077 11.6813 14.3606C11.9397 14.8039 12.8326 16.2822 14.1473 17.4695C15.8439 19.0017 17.2194 19.4913 17.7115 19.6995C18.0781 19.8536 18.5151 19.817 18.783 19.5279C19.1231 19.1559 19.5429 18.5392 19.9704 17.9321C20.2744 17.4965 20.6581 17.4425 21.0609 17.5967C21.4713 17.7412 23.6428 18.8302 24.0893 19.0557C24.5358 19.2831 24.8303 19.3911 24.9385 19.5819C25.0449 19.7727 25.0449 20.6689 24.6783 21.7213Z" fill="white"/>
</svg>
