<svg width="44" height="40" viewBox="0 0 44 40" fill="none" xmlns="http://www.w3.org/2000/svg">
<g clip-path="url(#clip0_421_8321)">
<path d="M38.7 26.4L35.8 27.4C35.5 26.5 34.8 25.8 33.9 25.5C33.6 23.8 32.1 22.6 30.4 22.7C29.3 20.9 27.3 19.9 25.2 20C25 19.1 24.3 18.4 23.4 18.1C24 16.1 25.1 14.2 26.6 12.7C26.7 12.8 26.8 12.9 26.8 13C28.1 14.4 30 15.1 31.9 15.2C32 15.2 32.2 15.2 32.3 15.2C34 15.1 35.6 14.3 36.7 12.9C39.6 9.10003 41.7 1.40002 41.8 1.10002C41.9 0.900017 41.8 0.700017 41.7 0.600017C41.6 0.400017 41.4 0.300029 41.2 0.300029C40.8 0.200029 31.5 -0.899989 26.9 3.00001C26.6 3.30001 26.3 3.60004 26 3.90004C24.2 3.40004 22.3 3.20004 20.4 3.40004C20.2 3.40004 20 3.50002 19.9 3.70002C19.8 3.90002 19.8 4.10003 19.8 4.30003C19.8 4.40003 20.9 7.90002 22.4 9.60002C23 10.3 24 10.7 25 10.7C25.1 10.7 25.2 10.7 25.3 10.7C25.4 11 25.6 11.4 25.8 11.7C24 13.5 22.7 15.7 22 18.1C21.4 18.2 20.8 18.6 20.4 19.1C18.6 18.3 16.4 18.7 15.1 20.2C14.7 20.1 14.3 20 13.9 20C11.9 20 10.3 21.4 10 23.3H8.8C8.2 22.5 7.3 22 6.3 22H5C3.3 22 2 23.3 2 25V37C2 38.7 3.3 40 5 40H6.3C7 40 7.6 39.8 8.2 39.3H25.6C26.6 39.3 27.5 39 28.4 38.5L40.9 30.9C42 30.2 42.4 28.9 41.9 27.7C41.3 26.6 39.9 26 38.7 26.4ZM28 3.90004C30.6 1.70004 34.9 1.30003 37.9 1.30003C39 1.30003 39.9 1.40004 40.5 1.40004C39.9 3.40004 38.1 9.10001 35.8 12C35 13.1 33.7 13.7 32.4 13.8C30.7 13.9 29.1 13.3 27.9 12.1C27.8 12 27.7 11.9 27.7 11.8C29.1 10.5 30.6 9.40002 32.3 8.60002C32.6 8.40002 32.8 8.00002 32.6 7.70002C32.4 7.40002 32 7.20004 31.7 7.40004C30 8.30004 28.4 9.40002 26.9 10.7C26.4 9.70002 26.2 8.70002 26.2 7.60002C26.3 6.10002 26.9 4.80004 28 3.90004ZM23.6 8.60002C22.7 7.40002 22 6.00002 21.6 4.60002C22.9 4.50002 24.2 4.60001 25.5 5.00001C25.1 5.80001 24.9 6.60001 24.9 7.50001C24.9 8.10001 24.9 8.70003 25 9.30003C24.5 9.30003 24 9.00002 23.6 8.60002ZM14 21.3C14.4 21.3 14.8 21.4 15.1 21.6C15.4 21.7 15.7 21.6 15.9 21.4C16.9 20 18.9 19.6 20.4 20.5C20.6 20.6 20.8 20.6 21 20.6C21.2 20.6 21.3 20.4 21.4 20.2C21.6 19.7 22.1 19.4 22.6 19.3C22.6 19.3 22.6 19.3 22.7 19.3C23.4 19.3 24 19.9 24 20.6V20.7C24 20.9 24.1 21.1 24.2 21.2C24.4 21.3 24.6 21.4 24.8 21.3C25.1 21.2 25.4 21.2 25.7 21.2C27.3 21.2 28.8 22.1 29.6 23.6C29.7 23.9 30 24 30.3 23.9C30.9 23.8 31.5 23.9 32 24.3C32.5 24.7 32.7 25.2 32.8 25.8C32.8 25.8 32.8 25.8 32.8 25.9C32.8 26.2 33 26.5 33.4 26.6C34 26.7 34.5 27.1 34.7 27.7L26.5 30.4C26.3 30.5 26.1 30.5 25.9 30.5H25.5C25.8 29.6 25.7 28.7 25.3 27.9L25.2 27.8C24.5 26.6 23.2 25.9 21.8 25.9H18.3C17.1 25.9 15.9 25.5 14.9 24.7C13.9 23.9 12.8 23.4 11.6 23.3C11.7 22.1 12.8 21.3 14 21.3ZM5 38.6C4.1 38.6 3.3 37.9 3.3 36.9V24.9C3.3 24 4 23.2 5 23.2H6.3C7.2 23.2 8 23.9 8 24.9V36.9C8 37.8 7.3 38.6 6.3 38.6H5ZM40.7 29C40.6 29.3 40.4 29.6 40.2 29.8L27.7 37.4C27.1 37.8 26.4 38 25.6 38H9.2C9.3 37.7 9.39999 37.3 9.39999 37V25C9.39999 24.9 9.39999 24.8 9.39999 24.7H10.6C11.8 24.7 13 25.1 14 25.9C15.2 26.9 16.7 27.4 18.2 27.4H21.7C22.6 27.4 23.5 27.9 24 28.7L24.1 28.8C24.5 29.4 24.4 30.2 24 30.7H19.9C18.6 30.7 17.3 31.1 16.2 31.8L15.7 32.1C15.5 32.2 15.4 32.5 15.4 32.7C15.4 32.9 15.6 33.2 15.8 33.3C16 33.4 16.3 33.4 16.5 33.3L17 33C17.9 32.4 18.9 32.1 20 32.1H25.9C26.3 32.1 26.6 32 27 31.9L35.5 29.1C35.6 29.1 35.8 29 35.9 28.9L39.3 27.8C39.8 27.6 40.3 27.8 40.6 28.2C40.7 28.3 40.7 28.7 40.7 29ZM16.7 23.1C16.9 22 17.9 21.2 19 21.2C19.5 21.2 20 21.4 20.4 21.7C20.7 21.9 20.8 22.3 20.5 22.6C20.3 22.9 19.9 23 19.6 22.7C19.4 22.6 19.2 22.5 19 22.5C18.5 22.5 18.1 22.8 18 23.3C17.9 23.7 17.6 23.9 17.2 23.8C16.9 23.9 16.6 23.5 16.7 23.1ZM25 24.1C24.8 24.2 24.5 24.2 24.3 24.1C24.1 24 23.9 23.8 23.9 23.5C23.9 23.2 24 23 24.2 22.9C24.9 22.5 25.7 22.4 26.4 22.7C27.1 23 27.6 23.7 27.8 24.5C27.9 24.9 27.6 25.2 27.2 25.3H27.1C26.8 25.3 26.5 25.1 26.4 24.7C26.4 24.5 26.3 24.3 26.1 24.1C26 23.9 25.4 23.8 25 24.1Z" fill="#AEEB67"/>
</g>
<defs>
<clipPath id="clip0_421_8321">
<rect width="44" height="40" fill="white"/>
</clipPath>
</defs>
</svg>
