<svg width="44" height="40" viewBox="0 0 44 40" fill="none" xmlns="http://www.w3.org/2000/svg">
<path d="M31.8694 35.4C32.7995 34.4 33.4197 33.2 33.523 31.9V31.8H33.6264C34.3498 31.8 34.9697 31.1999 34.9697 30.4999V30.4H36.2099C37.2434 30.5 38.1735 30 38.6902 29.2C38.8969 28.7 39.1035 28.2 39.0002 27.7V20.1C39.0002 19.6 38.8968 19 38.5868 18.6C38.2767 18.1 37.7601 17.6999 37.1401 17.4999H37.0366V13.9999C37.0366 6.29994 30.3193 0.100037 21.9485 0.100037C13.681 0.100037 6.86037 6.29994 6.86037 13.9999V17.4999H6.75705C6.13699 17.5999 5.62025 18.1 5.31022 18.6C5.10353 19.1 4.8968 19.6 5.00014 20.1V27.7C5.00014 28.2 5.10353 28.7 5.31022 29.2C5.82694 30 6.75705 30.5 7.79049 30.4H9.03056V30.4999C9.03056 31.1999 9.75399 31.8 10.4774 31.8H11.8209C12.6477 31.8 13.2676 31.2 13.2676 30.4V17.2C13.2676 16.4 12.6477 15.8 11.8209 15.8H10.3741C9.54733 15.8 8.92724 16.4 8.92724 17.2V17.3H8.10044V13.9C8.10044 6.99996 14.1978 1.29999 21.8452 1.29999C29.4926 1.29999 35.5899 6.89996 35.5899 13.9V17.3H34.7631V17.2C34.7631 16.4 34.143 15.8 33.3163 15.8H31.9729C31.1461 15.8 30.526 16.4 30.526 17.2V30.4C30.526 31.1 31.146 31.7 31.8694 31.8H31.9729V31.9C31.8695 32.9 31.3527 33.7999 30.7327 34.4999C29.4926 35.7999 27.5291 36.6 24.8422 36.8H24.7388V36.4C24.7388 35.6 24.0154 34.9999 23.1887 34.9999H19.8816C19.8816 34.9999 19.8816 34.9999 19.7783 34.9999C18.9516 34.9999 18.2282 35.6 18.2282 36.4V38.6C18.2282 39.4 18.9516 39.9999 19.7783 39.9999H23.0852C23.912 39.9999 24.6354 39.4 24.6354 38.6V38.1H24.7388C28.0458 37.9 30.3193 37 31.8694 35.4ZM10.4774 18.7C10.4774 18.6 10.4774 18.5 10.4774 18.4V17.1H11.9242V30.4999H10.4774V18.7ZM9.13388 18.6V28.9999H7.89381C6.96372 28.9999 6.75708 28.5999 6.65374 28.4999C6.55039 28.1999 6.44697 27.9 6.44697 27.6V19.9999C6.44697 19.6999 6.44705 19.4 6.65374 19.1C6.75708 19 6.96372 18.6 7.89381 18.6H9.13388ZM34.9697 18.7H36.2099C37.14 18.7 37.3467 19.1 37.45 19.2C37.5534 19.5 37.6568 19.8 37.6568 20.1V27.7C37.6568 28 37.6567 28.2999 37.45 28.4999C37.3467 28.5999 37.14 28.9999 36.2099 28.9999H34.9697V18.7ZM32.0762 17.1H33.523V18.7V30.4H32.0762V17.1ZM23.4986 38.4999C23.3953 38.5999 23.3953 38.7 23.292 38.7H19.9849C19.9849 38.7 19.985 38.7 19.8816 38.7C19.8816 38.7 19.8816 38.7 19.7783 38.7H19.675V36.4C19.7783 36.4 19.7783 36.3 19.8816 36.3H23.3953V38.4999H23.4986Z" fill="#AEEB67"/>
</svg>
