<svg width="23" height="10" viewBox="0 0 23 10" fill="none" xmlns="http://www.w3.org/2000/svg">
<path d="M16.793 0.292734C17.1591 -0.0733816 17.7381 -0.0959754 18.1309 0.224375L18.207 0.292734L22.207 4.29273L22.2754 4.36891C22.5957 4.76168 22.5731 5.34068 22.207 5.7068L18.207 9.7068C17.8165 10.0973 17.1835 10.0973 16.793 9.7068C16.4024 9.31627 16.4024 8.68326 16.793 8.29273L19.0859 5.99977H1.5C0.947715 5.99977 0.5 5.55205 0.5 4.99977C0.5 4.44748 0.947715 3.99977 1.5 3.99977H19.0859L16.793 1.7068L16.7246 1.63063C16.4043 1.23785 16.4269 0.65885 16.793 0.292734Z" fill="white"/>
</svg>
