<svg width="20" height="20" viewBox="0 0 20 20" xmlns="http://www.w3.org/2000/svg">
<path d="M17.4256 8.71681H13.1688V7.00212H14.7576V5.85434H12.5944C12.2771 5.85434 12.02 6.11119 12.02 6.42825V8.71684H10.6224V4.62994C10.6224 3.18003 9.44123 2 7.98989 2C6.53856 2 5.3476 3.18 5.3476 4.62994V4.66822L6.49649 4.62994C6.49649 3.81275 7.16629 3.14781 7.98986 3.14781C8.80784 3.14781 9.47341 3.81278 9.47341 4.62994V8.71678H2.57446C2.25709 8.71678 2 8.97363 2 9.29069V10.0075C2 14.4147 5.5888 18 10.0002 18C14.4117 18 18 14.4147 18 10.0075V9.29069C18 8.97363 17.7429 8.71678 17.4255 8.71678L17.4256 8.71681ZM16.8511 10.0075C16.8511 13.782 13.7779 16.8523 10.0002 16.8523C6.2226 16.8523 3.14892 13.7819 3.14892 10.0075V9.86459H16.8511V10.0075V10.0075Z"/>
</svg>
