<svg width="20" height="18" viewBox="0 0 20 18" xmlns="http://www.w3.org/2000/svg">
<path d="M4 11.7773C2.89557 11.7773 2.00023 12.673 2 13.7773V14C2 15.1046 2.89543 16 4 16H5.2002C6.30468 15.9999 7.2002 15.1045 7.2002 14V11.7773H4ZM10.7998 14V11.7773C10.8 10.673 11.6955 9.77745 12.7998 9.77734H16C18.209 9.77734 19.9998 11.5684 20 13.7773V14C20 16.2091 18.2091 18 16 18H14.7998C12.5908 17.9999 10.7998 16.2091 10.7998 14ZM7.2002 4C7.2002 2.8955 6.30467 2.00011 5.2002 2H4C2.89543 2 2 2.89543 2 4V4.22266C2.00023 5.32703 2.89558 6.22266 4 6.22266H7.2002V4ZM18 4.22266V4C18 2.89543 17.1046 2 16 2H14.7998C13.6953 2.00011 12.7998 2.8955 12.7998 4V6.22266H16C17.1044 6.22266 17.9998 5.32703 18 4.22266ZM9.2002 14C9.2002 16.2091 7.40924 17.9999 5.2002 18H4C1.79086 18 1.56462e-07 16.2091 0 14V13.7773C0.000233345 11.5684 1.79101 9.77734 4 9.77734H7.2002C8.30453 9.77745 9.19996 10.673 9.2002 11.7773V14ZM12.7998 14C12.7998 15.1045 13.6953 15.9999 14.7998 16H16C17.1046 16 18 15.1046 18 14V13.7773C17.9998 12.673 17.1044 11.7773 16 11.7773H12.7998V14ZM9.2002 6.22266C9.19996 7.32696 8.30453 8.22255 7.2002 8.22266H4C1.79101 8.22266 0.000234647 6.4316 0 4.22266V4C0 1.79086 1.79086 1.50326e-07 4 0H5.2002C7.40924 0.000106384 9.2002 1.79093 9.2002 4V6.22266ZM20 4.22266C19.9998 6.4316 18.209 8.22266 16 8.22266H12.7998C11.6955 8.22255 10.8 7.32696 10.7998 6.22266V4C10.7998 1.79093 12.5908 0.000105504 14.7998 0H16C18.2091 9.44923e-07 20 1.79086 20 4V4.22266Z" />
</svg> 
