<svg width="24" height="24" viewBox="0 0 24 24" fill="none" xmlns="http://www.w3.org/2000/svg">
<path d="M6.6 21V4.8C6.6 4.32261 6.78964 3.86477 7.12721 3.52721C7.46477 3.18964 7.92261 3 8.4 3H15.6C16.0774 3 16.5352 3.18964 16.8728 3.52721C17.2104 3.86477 17.4 4.32261 17.4 4.8V21M6.6 21H17.4M6.6 21H4.8C4.32261 21 3.86477 20.8104 3.52721 20.4728C3.18964 20.1352 3 19.6774 3 19.2V13.8C3 13.3226 3.18964 12.8648 3.52721 12.5272C3.86477 12.1896 4.32261 12 4.8 12H6.6M17.4 21H19.2C19.6774 21 20.1352 20.8104 20.4728 20.4728C20.8104 20.1352 21 19.6774 21 19.2V11.1C21 10.6226 20.8104 10.1648 20.4728 9.82721C20.1352 9.48964 19.6774 9.3 19.2 9.3H17.4M10.2 6.6H13.8M10.2 10.2H13.8M10.2 13.8H13.8M10.2 17.4H13.8" stroke="currentColor" stroke-width="2" stroke-linecap="round" stroke-linejoin="round"/>
</svg>
