<svg width="160" height="140" viewBox="0 0 160 140" xmlns="http://www.w3.org/2000/svg">
<path d="M74.9668 61.6641C75.3955 61.316 76.0249 61.3809 76.373 61.8096L83.6514 70.7734L86.6094 62.7363C86.8001 62.218 87.3752 61.9519 87.8936 62.1426C88.4119 62.3333 88.677 62.9084 88.4863 63.4268L81.1582 83.3457C86.7067 87.864 90.4119 94.5714 90.9814 101.968C91.1182 103.746 91.0822 107.526 90.8984 111.212C90.8061 113.063 90.6755 114.911 90.5078 116.494C90.4102 117.415 90.2968 118.273 90.166 118.999H116.417L104.199 76.1787C104.048 75.6477 104.356 75.0939 104.887 74.9424C105.418 74.7909 105.971 75.0988 106.123 75.6299L109.624 87.9033L119.65 80.2393C120.089 79.9039 120.717 79.988 121.053 80.4268C121.388 80.8655 121.304 81.4928 120.865 81.8281L110.801 89.5225C110.605 89.672 110.372 89.7371 110.144 89.7256L118.496 118.999H131.062L137.388 96.3174C137.536 95.7857 138.087 95.475 138.619 95.623C139.151 95.7714 139.463 96.3235 139.314 96.8555L133.138 118.999H149.244C149.948 117.87 150.618 116.297 151.229 114.416C151.915 112.302 152.506 109.863 152.99 107.357C153.96 102.338 154.484 97.1318 154.484 93.8564C154.484 79.2125 144.116 67.0784 130.487 64.5811C128.265 64.1736 126.634 62.4748 125.979 60.4102C123.815 53.5996 117.563 48.6934 110.193 48.6934H110.192C108.438 48.6916 106.695 48.9747 105.028 49.5312L104.696 49.6465C102.786 50.3312 100.603 50.1185 98.9492 48.7549V48.7559C93.0758 43.9123 85.6192 41.0001 77.4844 41C64.7732 41 53.6805 48.0715 47.7803 58.585C47.51 59.0666 46.9006 59.2381 46.4189 58.9678C45.9373 58.6975 45.7659 58.0881 46.0361 57.6064C52.2688 46.5004 64.0071 39 77.4844 39C85.838 39.0001 93.5139 41.8992 99.6338 46.7383L100.222 47.2129L100.419 47.3643C101.43 48.0838 102.758 48.2165 104.021 47.7637C106.004 47.0537 108.091 46.6914 110.193 46.6934C118.482 46.6934 125.472 52.2107 127.885 59.8047C128.356 61.2873 129.471 62.3619 130.849 62.6143C145.434 65.2871 156.484 78.2544 156.484 93.8564C156.484 97.2891 155.942 102.626 154.954 107.737C154.459 110.297 153.849 112.82 153.131 115.033C152.657 116.493 152.126 117.848 151.536 118.999H158C158.552 118.999 159 119.447 159 119.999C159 120.551 158.552 120.999 158 120.999H88.9346C88.9216 120.999 88.9086 120.999 88.8955 120.999H2C1.44772 120.999 1 120.551 1 119.999C1.00018 119.447 1.44783 118.999 2 118.999H5.77441C4.81583 116.217 4.16265 111.841 3.81543 107.488C3.42654 102.613 3.40367 97.5621 3.82227 94.4697C5.67093 80.8153 16.3494 69.7085 29.7471 67.6016C40.4366 65.9206 50.3134 69.7833 57.0303 76.793H57.0312C57.9074 77.7073 59.2073 78.0912 60.501 77.8613L61.2324 77.7412C64.9066 77.1962 68.8285 77.4317 72.8916 78.7861C75.2569 79.5745 77.4729 80.6966 79.4883 82.0908L82.9375 72.7139C82.7216 72.6681 82.5192 72.5518 82.3691 72.3672L74.8203 63.0703C74.4723 62.6416 74.5381 62.0121 74.9668 61.6641ZM55.5869 78.1768C49.2966 71.6121 40.0644 68.0035 30.0576 69.5771C17.5581 71.5429 7.53814 81.9344 5.80469 94.7383C5.41411 97.6237 5.42516 102.511 5.80957 107.33C6.19112 112.113 6.92758 116.633 7.91016 118.999H41.0107L37.1104 101.52L24.3359 97.3721C23.8109 97.2014 23.5238 96.6374 23.6943 96.1123C23.865 95.5872 24.4289 95.2992 24.9541 95.4697L36.6045 99.252L33.7334 86.3809C33.6131 85.8418 33.9532 85.3068 34.4922 85.1865C35.0311 85.0664 35.5653 85.4064 35.6855 85.9453L38.8145 99.9697L39.1074 100.065C39.6325 100.236 39.9205 100.8 39.75 101.325C39.6641 101.59 39.4775 101.793 39.2471 101.909L43.0596 118.999H54.1523L63.9697 93.4971C64.1682 92.9818 64.7474 92.7254 65.2627 92.9238C65.7779 93.1224 66.0343 93.7005 65.8359 94.2158L56.2959 118.999H88.1299C88.2692 118.318 88.4013 117.391 88.5186 116.284C88.6811 114.75 88.8102 112.941 88.9014 111.112C89.0845 107.439 89.1138 103.765 88.9873 102.121C88.23 92.2854 81.4591 83.75 72.2598 80.6836C68.2597 79.3501 64.4251 79.1945 60.8516 79.8301H60.8506C58.9617 80.1656 56.9681 79.6182 55.5869 78.1768Z" />
</svg>
