<svg width="24" height="24" viewBox="0 0 24 24" xmlns="http://www.w3.org/2000/svg">
<path d="M5.88991 16.7914V14.1866C5.89003 13.9268 6.10215 13.7161 6.36362 13.716C6.62516 13.716 6.8372 13.9268 6.83732 14.1866V16.7914C6.83732 18.0227 7.89789 19.0587 9.25395 19.0588H14.746C16.102 19.0587 17.1626 18.0228 17.1626 16.7914V14.1866C17.1626 13.9267 17.3747 13.716 17.6363 13.716C17.8979 13.7161 18.11 13.9267 18.11 14.1866V16.7914C18.11 18.5842 16.5823 19.9999 14.746 20H9.25395C7.41759 19.9999 5.88991 18.5842 5.88991 16.7914ZM12.9714 16.7914V14.4228C12.9714 13.9474 12.5579 13.5239 12 13.5239C11.442 13.5239 11.0285 13.9474 11.0285 14.4228V16.7914C11.0285 17.0513 10.8164 17.2619 10.5548 17.2619C10.2932 17.2619 10.0811 17.0512 10.0811 16.7914V14.4228C10.0811 13.386 10.9617 12.5827 12 12.5827C13.0382 12.5827 13.9188 13.386 13.9188 14.4228V16.7914C13.9188 17.0513 13.7067 17.2619 13.4451 17.2619C13.1835 17.2619 12.9714 17.0512 12.9714 16.7914ZM10.9443 4.30328C11.584 3.89891 12.4159 3.89891 13.0556 4.30328L13.1898 4.39611L13.1935 4.39887L20.2713 9.87222L20.4193 9.99631C21.1206 10.6481 21.2052 11.7218 20.572 12.4715L20.5729 12.4724C20.191 12.9256 19.6331 13.1544 19.0805 13.1544C18.6506 13.1547 18.2307 13.016 17.8907 12.7573L17.887 12.7555L12 8.1884L6.11288 12.7555L6.10918 12.7583C5.28982 13.3803 4.09084 13.2598 3.42702 12.4724L3.42794 12.4715C2.75268 11.6719 2.89402 10.504 3.72863 9.87222L10.8064 4.39887L10.8101 4.39611L10.9443 4.30328ZM12.5468 5.09648C12.1939 4.87395 11.7205 4.89008 11.3847 5.14428L4.30689 10.6176L4.30319 10.6213L4.30226 10.6204C3.91593 10.9129 3.83997 11.4184 4.09686 11.7941L4.1533 11.8676L4.21899 11.9384C4.56307 12.2699 5.13622 12.3119 5.53371 12.0101L11.7085 7.22148L11.7761 7.17829C11.9391 7.09124 12.1416 7.10537 12.2914 7.22148L18.4671 12.011L18.6031 12.0974C18.7468 12.1729 18.9113 12.2143 19.0805 12.2141C19.3747 12.2141 19.6584 12.0918 19.8466 11.8686L19.9031 11.7941C20.16 11.4183 20.0833 10.9129 19.6967 10.6204L19.693 10.6176L12.6152 5.14428L12.5468 5.09648Z"/>
</svg>
