<svg width="24" height="24" viewBox="0 0 24 24" xmlns="http://www.w3.org/2000/svg">
<path fill-rule="evenodd" clip-rule="evenodd" d="M17.5992 11.933L17.7057 11.9446C17.9469 11.9952 18.1285 12.2137 18.1286 12.4763C18.1286 12.7389 17.947 12.9584 17.7057 13.009L17.5992 13.0196H15.0152C14.7228 13.0196 14.4858 12.7763 14.4858 12.4763C14.4858 12.1763 14.7228 11.933 15.0152 11.933H17.5992Z"/>
<path d="M5.87144 12.09V10.7635C5.87144 10.4635 6.10846 10.2202 6.40085 10.2202C6.69321 10.2203 6.93026 10.4635 6.93026 10.7635V12.09C6.93005 12.3899 6.69308 12.6333 6.40085 12.6333C6.10859 12.6333 5.87165 12.3899 5.87144 12.09Z"/>
<path d="M5.87144 7.81667V6.4902C5.87168 6.19034 6.10861 5.94688 6.40085 5.94688C6.69307 5.94691 6.93003 6.19036 6.93026 6.4902V7.81667C6.93026 8.11672 6.69321 8.35996 6.40085 8.35999C6.10846 8.35999 5.87144 8.11673 5.87144 7.81667Z"/>
<path d="M8.74288 7.81667V6.4902C8.74311 6.19034 8.98005 5.94688 9.27229 5.94688C9.56448 5.94694 9.80146 6.19037 9.8017 6.4902V7.81667C9.8017 8.1167 9.56463 8.35993 9.27229 8.35999C8.9799 8.35999 8.74288 8.11673 8.74288 7.81667Z"/>
<path fill-rule="evenodd" clip-rule="evenodd" d="M15.7772 18.9134H12.6731V5.01729C12.6731 3.90349 11.7928 3 10.7075 3H8.36546H7.30664H4.96461C3.87956 3.00027 3 3.90366 3 5.01729V19.4567C3 19.7567 3.23703 20 3.52941 20H20.4706C20.763 20 21 19.7567 21 19.4567V9.14313C21 8.0295 20.1204 7.12611 19.0354 7.12584H15.0152C14.7228 7.12584 14.4859 7.36919 14.4858 7.66916C14.4858 7.96923 14.7228 8.21248 15.0152 8.21248H19.0354C19.5357 8.21276 19.9412 8.62964 19.9412 9.14313V18.9134H16.8361V16.5098C16.836 16.2098 16.599 15.9665 16.3066 15.9665C16.0145 15.9667 15.7773 16.2099 15.7772 16.5098V18.9134ZM11.6143 5.01729C11.6143 4.50363 11.208 4.08664 10.7075 4.08664H4.96461C4.46433 4.08691 4.05882 4.5038 4.05882 5.01729V18.9134H5.87144V15.0369C5.87144 14.7368 6.10846 14.4936 6.40085 14.4936H9.27229C9.56463 14.4936 9.8017 14.7369 9.8017 15.0369V18.9134H11.6143V5.01729ZM6.93026 18.9134H8.74288V15.5802H6.93026V18.9134Z"/>
<path d="M8.74288 10.7635V12.09C8.74309 12.3899 8.98003 12.6333 9.27229 12.6333C9.5645 12.6333 9.80149 12.3899 9.8017 12.09V10.7635C9.8017 10.4635 9.56463 10.2203 9.27229 10.2202C8.9799 10.2202 8.74288 10.4635 8.74288 10.7635Z"/>
</svg>
