<svg width="24" height="24" viewBox="0 0 24 24" fill="none" xmlns="http://www.w3.org/2000/svg">
<path d="M14.6667 20V12.8419C14.6667 12.6046 14.573 12.377 14.4063 12.2092C14.2396 12.0414 14.0135 11.9471 13.7778 11.9471H10.2222C9.98647 11.9471 9.76038 12.0414 9.59368 12.2092C9.42698 12.377 9.33333 12.6046 9.33333 12.8419V20M4 10.1576C3.99994 9.89731 4.0563 9.64012 4.16514 9.40398C4.27399 9.16785 4.43271 8.95846 4.63022 8.79043L10.8524 3.42276C11.1733 3.14977 11.5799 3 12 3C12.4201 3 12.8267 3.14977 13.1476 3.42276L19.3698 8.79043C19.5673 8.95846 19.726 9.16785 19.8349 9.40398C19.9437 9.64012 20.0001 9.89731 20 10.1576V18.2105C20 18.6851 19.8127 19.1403 19.4793 19.4759C19.1459 19.8115 18.6937 20 18.2222 20H5.77778C5.30628 20 4.8541 19.8115 4.5207 19.4759C4.1873 19.1403 4 18.6851 4 18.2105V10.1576Z" stroke="currentColor" stroke-width="2" stroke-linecap="round" stroke-linejoin="round"/>
</svg>
