<svg width="24" height="24" xmlns="http://www.w3.org/2000/svg"><path d="M7.429 12.417c0-.15.06-.293.167-.398A.575.575 0 018 11.854h3.429c.151 0 .296.059.404.165a.56.56 0 010 .797.575.575 0 01-.404.165H8a.575.575 0 01-.404-.165.56.56 0 01-.167-.399zm4 2.491H8a.575.575 0 00-.404.165.56.56 0 000 .797.575.575 0 00.404.166h3.429c.151 0 .296-.06.404-.166a.56.56 0 000-.797.575.575 0 00-.404-.165zM20 19.436a.56.56 0 01-.167.399.575.575 0 01-.404.165H4.57a.575.575 0 01-.404-.165.56.56 0 010-.797.575.575 0 01.404-.165h.572V8.51c0-.21.058-.415.17-.593.111-.179.271-.323.461-.416l6.857-3.382a1.15 1.15 0 011.112.05c.34.206.542.565.542.959v4.16h3.429c.63 0 1.143.506 1.143 1.128v8.456h.571c.152 0 .297.059.404.165a.56.56 0 01.168.398zm-5.714-9.019v8.456h3.428v-8.456h-3.428zm-8 8.456h6.857V5.129L6.286 8.51v10.362z"/></svg>