<svg width="24" height="24" xmlns="http://www.w3.org/2000/svg"><path d="M16.994 7.752A5 5 0 007 8l.01.28c.092 1.405.87 2.937 1.921 4.368 1.07 1.458 2.323 2.674 3.069 3.347.745-.673 1.998-1.889 3.069-3.347C16.189 11.122 17 9.481 17 8l-.006-.248zM3 21H21l-2-6h-3.245a26.61 26.61 0 01-2.158 2.246l-.322.294-.06.05a2 2 0 01-2.295.094l-.134-.094-.06-.05A26.819 26.819 0 018.244 15h-3.24L3 21zM13 8A1 1 0 1011 8a1 1 0 002 0zm2 0A3 3 0 119 8a3 3 0 016 0zm3.986.4c-.106 1.643-.846 3.236-1.732 4.6H19a2 2 0 011.897 1.368l2 6 .062.229a2.003 2.003 0 01-1.722 2.388L21 23H3a2.002 2.002 0 01-1.977-1.7 2 2 0 01.081-.934l2.004-6 .056-.146A2 2 0 015.004 13h1.74c-.884-1.364-1.625-2.957-1.73-4.6L5 8a7 7 0 1114 0l-.013.4z"/></svg>