<svg width="24" height="24" xmlns="http://www.w3.org/2000/svg"><path d="M9.912 6.716c2.671-1.749 6.307-2.467 10.885-.678 1.006.393 1.51 1.635 1.005 2.699-2.367 4.992-5.582 7.11-8.741 7.568-2.733.396-5.294-.469-7.054-1.524a8.663 8.663 0 00-.555.604c-.583.7-1.203 1.668-1.485 2.813-.141.575-.689.918-1.223.766-.533-.152-.852-.742-.71-1.317.39-1.591 1.225-2.854 1.928-3.7.355-.426.688-.76.935-.988.067-.063.13-.117.183-.164.75-1.952 2.33-4.441 4.832-6.079zm9.997 1.27c-3.932-1.476-6.866-.8-8.96.57-1.373.9-2.42 2.123-3.15 3.311.127-.023.258-.044.392-.07 1.145-.228 2.558-.617 4.095-1.559.48-.294 1.09-.113 1.363.403.273.517.106 1.175-.374 1.47a13.738 13.738 0 01-4.259 1.705c1.145.365 2.447.547 3.778.354 2.384-.345 5.022-1.91 7.115-6.184z"/></svg>