<svg width="24" height="24" viewBox="0 0 24 24" fill="none" xmlns="http://www.w3.org/2000/svg">
    <path
        d="M8.5 3.99V7.5C8.5 8.45478 8.86875 9.37045 9.52513 10.0456C10.1815 10.7207 11.0717 11.1 12 11.1C12.9283 11.1 13.8185 10.7207 14.4749 10.0456C15.1313 9.37045 15.5 8.45478 15.5 7.5V3.99M9.375 14.7L8.5 13.8M14.625 14.7L15.5 13.8M8.5 18.3L6.75 21M15.5 18.3L17.25 21M9.375 18.3C6.925 18.3 5 16.32 5 13.8V10.2C5 8.29044 5.7375 6.45909 7.05025 5.10883C8.36301 3.75857 10.1435 3 12 3C13.8565 3 15.637 3.75857 16.9497 5.10883C18.2625 6.45909 19 8.29044 19 10.2V13.8C19 16.32 17.075 18.3 14.625 18.3H9.375Z"
        stroke="currentColor" stroke-width="2" stroke-linecap="round" stroke-linejoin="round"/>
</svg>
