<svg width="24" height="24" viewBox="0 0 24 24" fill="none" xmlns="http://www.w3.org/2000/svg">
<g clip-path="url(#clip0_4501_27467)">
<path d="M20.4531 3.23529H3.95312C2.43434 3.23529 1.20312 4.47512 1.20312 6.00452V7.38914L10.9656 12.623C11.7494 13.0384 12.6569 13.0384 13.4406 12.623L23.2031 7.38914V6.00452C23.2031 4.47512 21.9719 3.23529 20.4531 3.23529Z" fill="currentColor"/>
<path d="M23.2031 18.4661V7.38914L13.4406 12.623C12.6569 13.0384 11.7494 13.0384 10.9656 12.623L1.20312 7.38914V18.4661C1.20312 19.9955 2.43434 21.2353 3.95312 21.2353H20.4531C21.9719 21.2353 23.2031 19.9955 23.2031 18.4661Z" fill="currentColor"/>
<path d="M23.2031 6.00452C23.2031 4.47512 21.9719 3.23529 20.4531 3.23529H3.95312C2.43434 3.23529 1.20312 4.47512 1.20312 6.00452M23.2031 6.00452V18.4661M23.2031 6.00452V7.38914M23.2031 18.4661C23.2031 19.9955 21.9719 21.2353 20.4531 21.2353H3.95312C2.43434 21.2353 1.20312 19.9955 1.20312 18.4661M23.2031 18.4661V7.38914M1.20312 18.4661V6.00452M1.20312 18.4661V7.38914M1.20312 6.00452V7.38914M23.2031 7.38914L13.4406 12.623C12.6569 13.0384 11.7494 13.0384 10.9656 12.623L1.20312 7.38914" stroke="var(--paper)" stroke-width="2" stroke-linecap="round" stroke-linejoin="round"/>
</g>
<defs>
<clipPath id="clip0_4501_27467">
<rect width="24" height="24" fill="white"/>
</clipPath>
</defs>
</svg>
