<svg width="25" height="24" viewBox="0 0 25 24" fill="none" xmlns="http://www.w3.org/2000/svg">
    <path
        d="M9.29257 13.8H5.95338C5.76466 13.8001 5.58075 13.8595 5.42763 13.9698C5.27452 14.0801 5.15995 14.2357 5.10013 14.4147L3.29642 19.8147C3.2512 19.95 3.23879 20.0941 3.2602 20.2351C3.28161 20.3761 3.33623 20.51 3.41957 20.6258C3.5029 20.7416 3.61256 20.8359 3.7395 20.9009C3.86644 20.966 4.00703 20.9999 4.14967 21H20.3506C20.4932 20.9999 20.6336 20.9659 20.7605 20.9009C20.8873 20.8359 20.9969 20.7417 21.0802 20.626C21.1636 20.5104 21.2182 20.3766 21.2397 20.2357C21.2612 20.0948 21.2489 19.9508 21.2039 19.8156L19.4038 14.4156C19.3441 14.2363 19.2294 14.0804 19.0761 13.9699C18.9228 13.8594 18.7386 13.8 18.5496 13.8H15.2086M17.6505 8.4C17.6505 11.6517 14.1682 15.0861 12.7965 16.3155C12.6396 16.4353 12.4476 16.5003 12.2502 16.5003C12.0527 16.5003 11.8607 16.4353 11.7038 16.3155C10.333 15.0861 6.84983 11.6517 6.84983 8.4C6.84983 6.96783 7.41879 5.59432 8.43155 4.58162C9.4443 3.56893 10.8179 3 12.2502 3C13.6824 3 15.056 3.56893 16.0688 4.58162C17.0815 5.59432 17.6505 6.96783 17.6505 8.4ZM14.0503 8.4C14.0503 9.39411 13.2443 10.2 12.2502 10.2C11.256 10.2 10.45 9.39411 10.45 8.4C10.45 7.40589 11.256 6.6 12.2502 6.6C13.2443 6.6 14.0503 7.40589 14.0503 8.4Z"
        stroke="currentColor" stroke-width="2" stroke-linecap="round" stroke-linejoin="round"/>
</svg>
