<svg width="24" height="24" xmlns="http://www.w3.org/2000/svg"><path d="M7.58 1.964v.001a2.812 2.812 0 012.752 2.162l.047.25.002.01.043.296c.111.689.29 1.366.534 2.02h.001a2.804 2.804 0 01-.632 2.962l-.004.004-.593.59a13.463 13.463 0 004.015 4.007l.594-.593.004-.004.149-.136a2.812 2.812 0 012.812-.496h.001a10.64 10.64 0 002.027.535l.297.043.01.001.252.048a2.81 2.81 0 012.164 2.777v2.705l-.003.146a2.805 2.805 0 01-2.913 2.67l-.146-.01h-.018a18.934 18.934 0 01-8.246-2.928v-.001a18.63 18.63 0 01-5.726-5.714l-.296-.471a18.852 18.852 0 01-2.57-7.248l-.068-.55-.001-.016a2.805 2.805 0 012.796-3.06H7.58zm-2.8 2.005a.812.812 0 00-.682.545.803.803 0 00-.04.313l.06.493A16.853 16.853 0 006.416 11.8l.265.42.004.008-.843.537.843-.536a16.63 16.63 0 004.74 4.861l.383.25.008.005.419.264a16.935 16.935 0 006.95 2.353.811.811 0 00.87-.807v-2.713l.001-.026a.804.804 0 00-.69-.817 12.645 12.645 0 01-2.76-.687h-.001a.814.814 0 00-.857.182l-1.145 1.143a1 1 0 01-1.2.162 15.466 15.466 0 01-5.805-5.794A1 1 0 017.76 9.4l1.146-1.144a.805.805 0 00.181-.849v-.002a12.584 12.584 0 01-.69-2.757.805.805 0 00-.808-.685H4.866l-.085.005zm15.57-1.713a1 1 0 011.412 1.416l-3.72 3.712h3.013a1 1 0 110 2h-5.43a1 1 0 01-1-1v-5.42a1 1 0 012 0v3.009l3.724-3.717z"/></svg>