<svg width="18" height="18" viewBox="0 0 18 18" xmlns="http://www.w3.org/2000/svg">
<path d="M14.2227 8.11133C14.2227 4.73633 11.4863 2.00012 8.11133 2C4.73625 2 2 4.73625 2 8.11133C2.00012 11.4863 4.73633 14.2227 8.11133 14.2227C11.4862 14.2225 14.2225 11.4862 14.2227 8.11133ZM16.2227 8.11133C16.2226 9.99056 15.5805 11.7186 14.5078 13.0938L17.707 16.293C18.0976 16.6835 18.0976 17.3165 17.707 17.707C17.3165 18.0976 16.6835 18.0976 16.293 17.707L13.0938 14.5078C11.7186 15.5805 9.99056 16.2226 8.11133 16.2227C3.63176 16.2227 0.000117252 12.5909 0 8.11133C0 3.63168 3.63168 0 8.11133 0C12.5909 0.000117255 16.2227 3.63176 16.2227 8.11133Z"  />
</svg>
