<svg width="24" height="24" viewBox="0 0 24 24" fill="none" xmlns="http://www.w3.org/2000/svg">
<path d="M11.0211 12.9765C10.8491 12.8048 10.6442 12.6697 10.4186 12.5794L3.28239 9.71773C3.19719 9.68354 3.12448 9.62411 3.07403 9.54741C3.02358 9.4707 2.9978 9.3804 3.00015 9.28862C3.0025 9.19685 3.03287 9.10798 3.08718 9.03396C3.14149 8.95994 3.21715 8.90431 3.30399 8.87453L20.402 3.0252C20.4818 2.9964 20.568 2.99091 20.6508 3.00936C20.7335 3.02781 20.8093 3.06944 20.8693 3.12939C20.9292 3.18934 20.9709 3.26512 20.9893 3.34786C21.0078 3.43061 21.0023 3.5169 20.9735 3.59664L15.1241 20.6947C15.0943 20.7815 15.0387 20.8572 14.9647 20.9115C14.8907 20.9658 14.8018 20.9962 14.71 20.9985C14.6183 21.0009 14.528 20.9751 14.4513 20.9246C14.3745 20.8742 14.3151 20.8015 14.2809 20.7163L11.4193 13.5783C11.3285 13.3529 11.1931 13.1481 11.0211 12.9765ZM11.0211 12.9765L20.8664 3.13319" stroke="currentColor" stroke-width="2" stroke-linecap="round" stroke-linejoin="round"/>
</svg>
