<svg width="32" height="32" viewBox="0 0 32 32" xmlns="http://www.w3.org/2000/svg">
<path d="M16 0C24.8366 0 32 7.16344 32 16C32 24.8366 24.8366 32 16 32C7.16344 32 0 24.8366 0 16C0 7.16344 7.16344 0 16 0ZM6 10C6.1624 17.4955 10.0603 22 16.8936 22H17.2803V17.7119C18.4855 17.8579 19.6191 18.3427 20.5391 19.1055C21.4591 19.8683 22.1248 20.8751 22.4521 22H26C25.6354 20.7051 24.9893 19.4992 24.1045 18.4619C23.2195 17.4246 22.1149 16.5795 20.8652 15.9824C21.9847 15.329 22.9526 14.46 23.707 13.4307C24.4614 12.4014 24.9864 11.2334 25.25 10H22.0273C21.3278 12.3784 19.254 14.5409 17.2803 14.7451V10H14.0576V18.3125C12.0589 17.832 9.53528 15.5015 9.42285 10H6Z" fill="currentColor"/>
</svg>
