<svg width="32" height="32" viewBox="0 0 32 32" xmlns="http://www.w3.org/2000/svg">
<path d="M16.0039 0C24.8259 0 32 7.178 32 16C32 24.822 24.8259 32 16.0039 32C12.7501 32 9.73206 31.0323 7.20215 29.3564L1.05176 31.3223L3.0459 25.3779C1.12794 22.7439 0 19.5 0 16C0 7.176 7.17409 0 15.9961 0H16.0039ZM10.1084 8C9.52704 8 8.92039 8.16315 8.55371 8.52051C8.10715 8.95594 7 9.97048 7 12.0527C7.00013 14.135 8.58983 16.1483 8.80469 16.4297C9.02887 16.7109 11.9055 21.0447 16.3721 22.8115C19.8637 24.1937 20.9012 24.0647 21.6953 23.9033C22.8561 23.6639 24.312 22.8441 24.6787 21.8555C25.0454 20.865 25.0449 20.0214 24.9385 19.8418C24.8302 19.6622 24.5353 19.5607 24.0889 19.3467C23.6417 19.1341 21.4708 18.1097 21.0605 17.9736C20.6579 17.8286 20.2746 17.8793 19.9707 18.2891C19.5433 18.8604 19.1233 19.4409 18.7832 19.791C18.5154 20.063 18.0785 20.0971 17.7119 19.9521C17.2199 19.7562 15.844 19.2956 14.1475 17.8535C12.833 16.7363 11.9402 15.3452 11.6816 14.9277C11.4234 14.5016 11.6543 14.2547 11.8594 14.0244C12.0836 13.7596 12.2973 13.5709 12.5215 13.3242C12.7456 13.0776 12.8702 12.9484 13.0127 12.6582C13.1647 12.377 13.0565 12.0871 12.9482 11.873C12.8418 11.659 11.9487 9.57593 11.582 8.73242C11.2877 8.05994 11.0635 8.03474 10.6172 8.0166C10.4653 8.00935 10.2963 8.00001 10.1084 8Z" fill="currentColor"/>
</svg>
