<svg width="24" height="24" viewBox="0 0 24 24" fill="none" xmlns="http://www.w3.org/2000/svg">
<path fill-rule="evenodd" clip-rule="evenodd" d="M12.0027 1C18.0678 1 23 5.93488 23 12C23 18.0651 18.0678 23 12.0027 23C9.76568 23 7.69079 22.3347 5.95148 21.1826L1.72308 22.5341L3.09406 18.4473C1.77546 16.6365 1 14.4062 1 12C1 5.9335 5.93219 1 11.9973 1H12.0027ZM7.94952 6.5C7.54984 6.5 7.13276 6.61217 6.88068 6.85785C6.57367 7.15721 5.8125 7.85471 5.8125 9.28625C5.81259 10.7178 6.90551 12.102 7.05322 12.2954C7.20735 12.4887 9.18502 15.4682 12.2558 16.6829C14.6563 17.6331 15.3696 17.5445 15.9155 17.4335C16.7136 17.2689 17.7145 16.7053 17.9666 16.0256C18.2187 15.3447 18.2183 14.7647 18.1452 14.6412C18.0707 14.5178 17.868 14.448 17.5611 14.3008C17.2537 14.1547 15.7612 13.4504 15.4791 13.3569C15.2023 13.2572 14.9388 13.292 14.7299 13.5737C14.436 13.9665 14.1472 14.3656 13.9135 14.6063C13.7293 14.7933 13.429 14.8168 13.1769 14.7171C12.8386 14.5824 11.8928 14.2657 10.7264 13.2743C9.82268 12.5062 9.20889 11.5498 9.03113 11.2628C8.85357 10.9699 9.0123 10.8001 9.15332 10.6418C9.30745 10.4597 9.45439 10.33 9.60852 10.1604C9.76258 9.99087 9.84829 9.90199 9.94623 9.70251C10.0507 9.50922 9.97636 9.30988 9.90192 9.16272C9.82877 9.01556 9.21474 7.58345 8.96265 7.00354C8.76027 6.54121 8.60618 6.52388 8.29932 6.51141C8.19489 6.50643 8.07873 6.5 7.94952 6.5Z" fill="currentColor"/>
</svg>
