<svg width="29" height="22" xmlns="http://www.w3.org/2000/svg"><path d="M27.277 4.052c-.259-1.443-1.492-2.494-2.923-2.823C22.212.771 18.248.442 13.96.442c-4.286 0-8.314.329-10.458.787C2.073 1.558.838 2.542.58 4.052c-.262 1.64-.52 3.937-.52 6.89 0 2.954.258 5.25.583 6.891.262 1.443 1.495 2.494 2.924 2.822 2.273.46 6.171.787 10.46.787 4.288 0 8.186-.328 10.46-.787 1.428-.328 2.662-1.312 2.923-2.822.259-1.64.584-4.004.65-6.89-.132-2.954-.457-5.25-.782-6.891zM10.453 15.536V6.35l7.925 4.593-7.925 4.594z"/></svg>